<?xml version="1.0" encoding="UTF-8" standalone="no"?>
<!-- Created with Inkscape (http://www.inkscape.org/) -->

<svg
   xmlns:dc="http://purl.org/dc/elements/1.1/"
   xmlns:cc="http://creativecommons.org/ns#"
   xmlns:rdf="http://www.w3.org/1999/02/22-rdf-syntax-ns#"
   xmlns:svg="http://www.w3.org/2000/svg"
   xmlns="http://www.w3.org/2000/svg"
   xmlns:sodipodi="http://sodipodi.sourceforge.net/DTD/sodipodi-0.dtd"
   xmlns:inkscape="http://www.inkscape.org/namespaces/inkscape"
   version="1.1"
   id="svg2"
   xml:space="preserve"
   width="2133.3333"
   height="1600"
   viewBox="0 0 2133.3333 1600"
   sodipodi:docname="total cost (USD) vs subnet 2 frequency (Hz).pdf"
   inkscape:version="0.92.3 (2405546, 2018-03-11)"><metadata
     id="metadata8"><rdf:RDF><cc:Work
         rdf:about=""><dc:format>image/svg+xml</dc:format><dc:type
           rdf:resource="http://purl.org/dc/dcmitype/StillImage" /><dc:title></dc:title></cc:Work></rdf:RDF></metadata><defs
     id="defs6"><clipPath
       clipPathUnits="userSpaceOnUse"
       id="clipPath16"><path
         d="M 0,0 H 1600 V 1200 H 0 Z"
         id="path14"
         inkscape:connector-curvature="0" /></clipPath><clipPath
       clipPathUnits="userSpaceOnUse"
       id="clipPath24"><path
         d="M 0,0 H 1600 V 1600 H 0 Z"
         id="path22"
         inkscape:connector-curvature="0" /></clipPath><clipPath
       clipPathUnits="userSpaceOnUse"
       id="clipPath34"><path
         d="M 0,0 H 1600 V 1600 H 0 Z"
         id="path32"
         inkscape:connector-curvature="0" /></clipPath></defs><sodipodi:namedview
     pagecolor="#ffffff"
     bordercolor="#666666"
     borderopacity="1"
     objecttolerance="10"
     gridtolerance="10"
     guidetolerance="10"
     inkscape:pageopacity="0"
     inkscape:pageshadow="2"
     inkscape:window-width="864"
     inkscape:window-height="480"
     id="namedview4"
     showgrid="false"
     inkscape:zoom="0.1475"
     inkscape:cx="1066.6666"
     inkscape:cy="800"
     inkscape:window-x="0"
     inkscape:window-y="27"
     inkscape:window-maximized="0"
     inkscape:current-layer="g10" /><g
     id="g10"
     inkscape:groupmode="layer"
     inkscape:label="total cost (USD) vs subnet 2 frequency (Hz)"
     transform="matrix(1.3333333,0,0,-1.3333333,0,1600)"><g
       id="g12"
       clip-path="url(#clipPath16)"><g
         id="g18"><g
           id="g20"
           clip-path="url(#clipPath24)"><path
             d="M 0,0 H 1600 V 1200 H 0"
             style="fill:#ffffff;fill-opacity:1;fill-rule:evenodd;stroke:none"
             id="path26"
             inkscape:connector-curvature="0" /></g></g><g
         id="g28"><g
           id="g30"
           clip-path="url(#clipPath34)"><path
             d="m 258.88,153.64 h 1254.51 v 959.75 H 258.88"
             style="fill:#ffffff;fill-opacity:1;fill-rule:evenodd;stroke:none"
             id="path36"
             inkscape:connector-curvature="0" /></g></g><path
         d="m 270.23,153.64 v 959.75"
         style="fill:none;stroke:#000000;stroke-width:0.5;stroke-linecap:butt;stroke-linejoin:miter;stroke-miterlimit:10;stroke-dasharray:none;stroke-opacity:0.09803922"
         id="path38"
         inkscape:connector-curvature="0" /><path
         d="m 511.76,153.64 v 959.75"
         style="fill:none;stroke:#000000;stroke-width:0.5;stroke-linecap:butt;stroke-linejoin:miter;stroke-miterlimit:10;stroke-dasharray:none;stroke-opacity:0.09803922"
         id="path40"
         inkscape:connector-curvature="0" /><path
         d="m 753.29,153.64 v 959.75"
         style="fill:none;stroke:#000000;stroke-width:0.5;stroke-linecap:butt;stroke-linejoin:miter;stroke-miterlimit:10;stroke-dasharray:none;stroke-opacity:0.09803922"
         id="path42"
         inkscape:connector-curvature="0" /><path
         d="m 994.82,153.64 v 959.75"
         style="fill:none;stroke:#000000;stroke-width:0.5;stroke-linecap:butt;stroke-linejoin:miter;stroke-miterlimit:10;stroke-dasharray:none;stroke-opacity:0.09803922"
         id="path44"
         inkscape:connector-curvature="0" /><path
         d="m 1236.35,153.64 v 959.75"
         style="fill:none;stroke:#000000;stroke-width:0.5;stroke-linecap:butt;stroke-linejoin:miter;stroke-miterlimit:10;stroke-dasharray:none;stroke-opacity:0.09803922"
         id="path46"
         inkscape:connector-curvature="0" /><path
         d="m 1477.88,153.64 v 959.75"
         style="fill:none;stroke:#000000;stroke-width:0.5;stroke-linecap:butt;stroke-linejoin:miter;stroke-miterlimit:10;stroke-dasharray:none;stroke-opacity:0.09803922"
         id="path48"
         inkscape:connector-curvature="0" /><path
         d="M 258.88,263.49 H 1513.39"
         style="fill:none;stroke:#000000;stroke-width:0.5;stroke-linecap:butt;stroke-linejoin:miter;stroke-miterlimit:10;stroke-dasharray:none;stroke-opacity:0.09803922"
         id="path50"
         inkscape:connector-curvature="0" /><path
         d="M 258.88,438.98 H 1513.39"
         style="fill:none;stroke:#000000;stroke-width:0.5;stroke-linecap:butt;stroke-linejoin:miter;stroke-miterlimit:10;stroke-dasharray:none;stroke-opacity:0.09803922"
         id="path52"
         inkscape:connector-curvature="0" /><path
         d="M 258.88,614.46 H 1513.39"
         style="fill:none;stroke:#000000;stroke-width:0.5;stroke-linecap:butt;stroke-linejoin:miter;stroke-miterlimit:10;stroke-dasharray:none;stroke-opacity:0.09803922"
         id="path54"
         inkscape:connector-curvature="0" /><path
         d="M 258.88,789.95 H 1513.39"
         style="fill:none;stroke:#000000;stroke-width:0.5;stroke-linecap:butt;stroke-linejoin:miter;stroke-miterlimit:10;stroke-dasharray:none;stroke-opacity:0.09803922"
         id="path56"
         inkscape:connector-curvature="0" /><path
         d="M 258.88,965.44 H 1513.39"
         style="fill:none;stroke:#000000;stroke-width:0.5;stroke-linecap:butt;stroke-linejoin:miter;stroke-miterlimit:10;stroke-dasharray:none;stroke-opacity:0.09803922"
         id="path58"
         inkscape:connector-curvature="0" /><path
         d="M 258.88,153.64 H 1513.39"
         style="fill:none;stroke:#000000;stroke-width:1;stroke-linecap:butt;stroke-linejoin:miter;stroke-miterlimit:10;stroke-dasharray:none;stroke-opacity:1"
         id="path60"
         inkscape:connector-curvature="0" /><path
         d="m 258.88,153.64 v 959.75"
         style="fill:none;stroke:#000000;stroke-width:1;stroke-linecap:butt;stroke-linejoin:miter;stroke-miterlimit:10;stroke-dasharray:none;stroke-opacity:1"
         id="path62"
         inkscape:connector-curvature="0" /><path
         d="m 270.23,153.64 v 14.4"
         style="fill:none;stroke:#000000;stroke-width:1;stroke-linecap:butt;stroke-linejoin:miter;stroke-miterlimit:10;stroke-dasharray:none;stroke-opacity:1"
         id="path64"
         inkscape:connector-curvature="0" /><path
         d="m 511.76,153.64 v 14.4"
         style="fill:none;stroke:#000000;stroke-width:1;stroke-linecap:butt;stroke-linejoin:miter;stroke-miterlimit:10;stroke-dasharray:none;stroke-opacity:1"
         id="path66"
         inkscape:connector-curvature="0" /><path
         d="m 753.29,153.64 v 14.4"
         style="fill:none;stroke:#000000;stroke-width:1;stroke-linecap:butt;stroke-linejoin:miter;stroke-miterlimit:10;stroke-dasharray:none;stroke-opacity:1"
         id="path68"
         inkscape:connector-curvature="0" /><path
         d="m 994.82,153.64 v 14.4"
         style="fill:none;stroke:#000000;stroke-width:1;stroke-linecap:butt;stroke-linejoin:miter;stroke-miterlimit:10;stroke-dasharray:none;stroke-opacity:1"
         id="path70"
         inkscape:connector-curvature="0" /><path
         d="m 1236.35,153.64 v 14.4"
         style="fill:none;stroke:#000000;stroke-width:1;stroke-linecap:butt;stroke-linejoin:miter;stroke-miterlimit:10;stroke-dasharray:none;stroke-opacity:1"
         id="path72"
         inkscape:connector-curvature="0" /><path
         d="m 1477.88,153.64 v 14.4"
         style="fill:none;stroke:#000000;stroke-width:1;stroke-linecap:butt;stroke-linejoin:miter;stroke-miterlimit:10;stroke-dasharray:none;stroke-opacity:1"
         id="path74"
         inkscape:connector-curvature="0" /><path
         d="m 258.88,263.49 h 18.81"
         style="fill:none;stroke:#000000;stroke-width:1;stroke-linecap:butt;stroke-linejoin:miter;stroke-miterlimit:10;stroke-dasharray:none;stroke-opacity:1"
         id="path76"
         inkscape:connector-curvature="0" /><path
         d="m 258.88,438.98 h 18.81"
         style="fill:none;stroke:#000000;stroke-width:1;stroke-linecap:butt;stroke-linejoin:miter;stroke-miterlimit:10;stroke-dasharray:none;stroke-opacity:1"
         id="path78"
         inkscape:connector-curvature="0" /><path
         d="m 258.88,614.46 h 18.81"
         style="fill:none;stroke:#000000;stroke-width:1;stroke-linecap:butt;stroke-linejoin:miter;stroke-miterlimit:10;stroke-dasharray:none;stroke-opacity:1"
         id="path80"
         inkscape:connector-curvature="0" /><path
         d="m 258.88,789.95 h 18.81"
         style="fill:none;stroke:#000000;stroke-width:1;stroke-linecap:butt;stroke-linejoin:miter;stroke-miterlimit:10;stroke-dasharray:none;stroke-opacity:1"
         id="path82"
         inkscape:connector-curvature="0" /><path
         d="m 258.88,965.44 h 18.81"
         style="fill:none;stroke:#000000;stroke-width:1;stroke-linecap:butt;stroke-linejoin:miter;stroke-miterlimit:10;stroke-dasharray:none;stroke-opacity:1"
         id="path84"
         inkscape:connector-curvature="0" /><text
         transform="matrix(1,0,0,-1,263.73,125.24)"
         style="font-variant:normal;font-weight:normal;font-size:24px;font-family:Helvetica;-inkscape-font-specification:Helvetica;writing-mode:lr-tb;fill:#000000;fill-opacity:1;fill-rule:nonzero;stroke:none"
         id="text88"><tspan
           x="0"
           y="0"
           id="tspan86">0</tspan></text>
<text
         transform="matrix(1,0,0,-1,498.76,125.24)"
         style="font-variant:normal;font-weight:normal;font-size:24px;font-family:Helvetica;-inkscape-font-specification:Helvetica;writing-mode:lr-tb;fill:#000000;fill-opacity:1;fill-rule:nonzero;stroke:none"
         id="text92"><tspan
           x="0 13.344"
           y="0"
           sodipodi:role="line"
           id="tspan90">10</tspan></text>
<text
         transform="matrix(1,0,0,-1,740.29,125.24)"
         style="font-variant:normal;font-weight:normal;font-size:24px;font-family:Helvetica;-inkscape-font-specification:Helvetica;writing-mode:lr-tb;fill:#000000;fill-opacity:1;fill-rule:nonzero;stroke:none"
         id="text96"><tspan
           x="0 13.344"
           y="0"
           sodipodi:role="line"
           id="tspan94">20</tspan></text>
<text
         transform="matrix(1,0,0,-1,981.82,125.24)"
         style="font-variant:normal;font-weight:normal;font-size:24px;font-family:Helvetica;-inkscape-font-specification:Helvetica;writing-mode:lr-tb;fill:#000000;fill-opacity:1;fill-rule:nonzero;stroke:none"
         id="text100"><tspan
           x="0 13.344"
           y="0"
           sodipodi:role="line"
           id="tspan98">30</tspan></text>
<text
         transform="matrix(1,0,0,-1,1223.35,125.24)"
         style="font-variant:normal;font-weight:normal;font-size:24px;font-family:Helvetica;-inkscape-font-specification:Helvetica;writing-mode:lr-tb;fill:#000000;fill-opacity:1;fill-rule:nonzero;stroke:none"
         id="text104"><tspan
           x="0 13.344"
           y="0"
           sodipodi:role="line"
           id="tspan102">40</tspan></text>
<text
         transform="matrix(1,0,0,-1,1464.88,125.24)"
         style="font-variant:normal;font-weight:normal;font-size:24px;font-family:Helvetica;-inkscape-font-specification:Helvetica;writing-mode:lr-tb;fill:#000000;fill-opacity:1;fill-rule:nonzero;stroke:none"
         id="text108"><tspan
           x="0 13.344"
           y="0"
           sodipodi:role="line"
           id="tspan106">50</tspan></text>
<text
         transform="matrix(1,0,0,-1,144.35,251.63)"
         style="font-variant:normal;font-weight:normal;font-size:24px;font-family:Helvetica;-inkscape-font-specification:Helvetica;writing-mode:lr-tb;fill:#000000;fill-opacity:1;fill-rule:nonzero;stroke:none"
         id="text112"><tspan
           x="0 13.344 20.016001 33.360001 46.703999 60.720001 74.064003"
           y="0"
           sodipodi:role="line"
           id="tspan110">4.30×10</tspan></text>
<text
         transform="matrix(1,0,0,-1,232,265.33)"
         style="font-variant:normal;font-weight:normal;font-size:19px;font-family:Helvetica;-inkscape-font-specification:Helvetica;writing-mode:lr-tb;fill:#000000;fill-opacity:1;fill-rule:nonzero;stroke:none"
         id="text116"><tspan
           x="0"
           y="0"
           id="tspan114">6</tspan></text>
<text
         transform="matrix(1,0,0,-1,144.35,427.11)"
         style="font-variant:normal;font-weight:normal;font-size:24px;font-family:Helvetica;-inkscape-font-specification:Helvetica;writing-mode:lr-tb;fill:#000000;fill-opacity:1;fill-rule:nonzero;stroke:none"
         id="text120"><tspan
           x="0 13.344 20.016001 33.360001 46.703999 60.720001 74.064003"
           y="0"
           sodipodi:role="line"
           id="tspan118">4.35×10</tspan></text>
<text
         transform="matrix(1,0,0,-1,232,440.82)"
         style="font-variant:normal;font-weight:normal;font-size:19px;font-family:Helvetica;-inkscape-font-specification:Helvetica;writing-mode:lr-tb;fill:#000000;fill-opacity:1;fill-rule:nonzero;stroke:none"
         id="text124"><tspan
           x="0"
           y="0"
           id="tspan122">6</tspan></text>
<text
         transform="matrix(1,0,0,-1,144.35,602.6)"
         style="font-variant:normal;font-weight:normal;font-size:24px;font-family:Helvetica;-inkscape-font-specification:Helvetica;writing-mode:lr-tb;fill:#000000;fill-opacity:1;fill-rule:nonzero;stroke:none"
         id="text128"><tspan
           x="0 13.344 20.016001 33.360001 46.703999 60.720001 74.064003"
           y="0"
           sodipodi:role="line"
           id="tspan126">4.40×10</tspan></text>
<text
         transform="matrix(1,0,0,-1,232,616.31)"
         style="font-variant:normal;font-weight:normal;font-size:19px;font-family:Helvetica;-inkscape-font-specification:Helvetica;writing-mode:lr-tb;fill:#000000;fill-opacity:1;fill-rule:nonzero;stroke:none"
         id="text132"><tspan
           x="0"
           y="0"
           id="tspan130">6</tspan></text>
<text
         transform="matrix(1,0,0,-1,144.35,778.09)"
         style="font-variant:normal;font-weight:normal;font-size:24px;font-family:Helvetica;-inkscape-font-specification:Helvetica;writing-mode:lr-tb;fill:#000000;fill-opacity:1;fill-rule:nonzero;stroke:none"
         id="text136"><tspan
           x="0 13.344 20.016001 33.360001 46.703999 60.720001 74.064003"
           y="0"
           sodipodi:role="line"
           id="tspan134">4.45×10</tspan></text>
<text
         transform="matrix(1,0,0,-1,232,791.79)"
         style="font-variant:normal;font-weight:normal;font-size:19px;font-family:Helvetica;-inkscape-font-specification:Helvetica;writing-mode:lr-tb;fill:#000000;fill-opacity:1;fill-rule:nonzero;stroke:none"
         id="text140"><tspan
           x="0"
           y="0"
           id="tspan138">6</tspan></text>
<text
         transform="matrix(1,0,0,-1,144.35,953.57)"
         style="font-variant:normal;font-weight:normal;font-size:24px;font-family:Helvetica;-inkscape-font-specification:Helvetica;writing-mode:lr-tb;fill:#000000;fill-opacity:1;fill-rule:nonzero;stroke:none"
         id="text144"><tspan
           x="0 13.344 20.016001 33.360001 46.703999 60.720001 74.064003"
           y="0"
           sodipodi:role="line"
           id="tspan142">4.50×10</tspan></text>
<text
         transform="matrix(1,0,0,-1,232,967.28)"
         style="font-variant:normal;font-weight:normal;font-size:19px;font-family:Helvetica;-inkscape-font-specification:Helvetica;writing-mode:lr-tb;fill:#000000;fill-opacity:1;fill-rule:nonzero;stroke:none"
         id="text148"><tspan
           x="0"
           y="0"
           id="tspan146">6</tspan></text>
<text
         transform="matrix(1,0,0,-1,693.13,79.97)"
         style="font-variant:normal;font-weight:normal;font-size:36px;font-family:Helvetica;-inkscape-font-specification:Helvetica;writing-mode:lr-tb;fill:#000000;fill-opacity:1;fill-rule:nonzero;stroke:none"
         id="text152"><tspan
           x="0 18 38.015999 58.032001 78.047997 98.064003 108.072 118.08 138.09599 148.104 158.112 170.10001 190.116 210.132 230.14799 250.164 270.17999 288.17999 306.17999 316.18799 328.17599 354.168 372.168"
           y="0"
           sodipodi:role="line"
           id="tspan150">subnet 2 frequency (Hz)</tspan></text>
<text
         transform="matrix(0,1,1,0,100.26,506.02)"
         style="font-variant:normal;font-weight:normal;font-size:36px;font-family:Helvetica;-inkscape-font-specification:Helvetica;writing-mode:lr-tb;fill:#000000;fill-opacity:1;fill-rule:nonzero;stroke:none"
         id="text156"><tspan
           x="0 10.008 30.024 40.032001 60.048 68.040001 78.047997 96.047997 116.064 134.064 144.07201 154.08 166.06799 192.06 216.07201 242.064"
           y="0"
           sodipodi:role="line"
           id="tspan154">total cost (USD)</tspan></text>
<path
         d="m 294.38,233.62 h 12.08 l 12.07,0.01 h 12.08 12.08 l 12.07,0.01 h 12.08 12.08 l 12.07,0.01 12.08,0.01 h 12.08 l 12.07,0.01 12.08,0.01 h 12.08 l 12.07,0.01 12.08,0.01 12.07,0.01 12.08,0.01 12.08,0.01 12.07,0.01 12.08,0.02 12.08,0.01 12.07,0.01 12.08,0.01 12.08,0.02 12.07,0.01 12.08,0.02 12.08,0.01 12.07,0.02 12.08,0.02 12.08,0.02 12.07,0.01 12.08,0.02 12.08,0.02 12.07,0.02 12.08,0.02 12.08,0.02 12.07,0.02 12.08,0.03 12.08,0.02 12.07,0.02 12.08,0.02 12.07,0.05 12.08,0.2 12.08,0.37 12.07,0.53 12.08,0.68 12.08,0.83 12.07,0.97 12.08,1.11 12.08,1.23 12.07,1.36 12.08,1.48 12.08,1.59 12.07,1.72 12.08,1.82 12.08,1.94 12.07,2.04 12.08,2.16 12.08,2.25 12.07,2.36 12.08,2.47 12.08,2.56 12.07,2.67 12.08,2.77 12.08,2.87 12.07,2.98 12.08,3.07 12.07,3.17 12.08,3.28 12.08,3.38 12.07,21.59 12.08,32.23 12.08,31.75 12.07,31.27 12.08,30.8 12.08,30.33 12.07,29.86 12.08,29.56 12.08,29.21 12.07,28.77 12.08,28.32 12.08,27.89 12.07,27.46 12.08,27.04 12.08,26.63 12.07,26.21 12.08,25.86 12.08,25.49 12.07,25.13 12.08,24.76 12.08,24.39 12.07,24.03 12.08,23.68 12.07,23.32 12.08,22.97 12.08,22.61 12.07,22.27 12.08,21.94"
         style="fill:none;stroke:#009afa;stroke-width:4;stroke-linecap:butt;stroke-linejoin:miter;stroke-miterlimit:10;stroke-dasharray:none;stroke-opacity:1"
         id="path158"
         inkscape:connector-curvature="0" /></g></g></svg>