<?xml version="1.0" encoding="UTF-8" standalone="no"?>
<!-- Created with Inkscape (http://www.inkscape.org/) -->

<svg
   xmlns:dc="http://purl.org/dc/elements/1.1/"
   xmlns:cc="http://creativecommons.org/ns#"
   xmlns:rdf="http://www.w3.org/1999/02/22-rdf-syntax-ns#"
   xmlns:svg="http://www.w3.org/2000/svg"
   xmlns="http://www.w3.org/2000/svg"
   xmlns:sodipodi="http://sodipodi.sourceforge.net/DTD/sodipodi-0.dtd"
   xmlns:inkscape="http://www.inkscape.org/namespaces/inkscape"
   version="1.1"
   id="svg2"
   xml:space="preserve"
   width="2133.3333"
   height="1600"
   viewBox="0 0 2133.3333 1600"
   sodipodi:docname="multiterminal_sweep.svg"
   inkscape:version="0.92.5 (2060ec1f9f, 2020-04-08)"><metadata
     id="metadata8"><rdf:RDF><cc:Work
         rdf:about=""><dc:format>image/svg+xml</dc:format><dc:type
           rdf:resource="http://purl.org/dc/dcmitype/StillImage" /><dc:title></dc:title></cc:Work></rdf:RDF></metadata><defs
     id="defs6"><clipPath
       clipPathUnits="userSpaceOnUse"
       id="clipPath16"><path
         d="M 0,0 H 1600 V 1200 H 0 Z"
         id="path14"
         inkscape:connector-curvature="0" /></clipPath><clipPath
       clipPathUnits="userSpaceOnUse"
       id="clipPath24"><path
         d="M 0,0 H 1600 V 1600 H 0 Z"
         id="path22"
         inkscape:connector-curvature="0" /></clipPath><clipPath
       clipPathUnits="userSpaceOnUse"
       id="clipPath34"><path
         d="M 0,0 H 1600 V 1600 H 0 Z"
         id="path32"
         inkscape:connector-curvature="0" /></clipPath><clipPath
       clipPathUnits="userSpaceOnUse"
       id="clipPath152"><path
         d="M 0,0 H 1600 V 1600 H 0 Z"
         id="path150"
         inkscape:connector-curvature="0" /></clipPath></defs><sodipodi:namedview
     pagecolor="#ffffff"
     bordercolor="#666666"
     borderopacity="1"
     objecttolerance="10"
     gridtolerance="10"
     guidetolerance="10"
     inkscape:pageopacity="0"
     inkscape:pageshadow="2"
     inkscape:window-width="1920"
     inkscape:window-height="1016"
     id="namedview4"
     showgrid="false"
     inkscape:zoom="0.295"
     inkscape:cx="1139.9503"
     inkscape:cy="1038.3659"
     inkscape:window-x="0"
     inkscape:window-y="27"
     inkscape:window-maximized="1"
     inkscape:current-layer="g10" /><g
     id="g10"
     inkscape:groupmode="layer"
     inkscape:label="multiterminal_sweep"
     transform="matrix(1.3333333,0,0,-1.3333333,0,1600)"><g
       id="g18"><g
         clip-path="url(#clipPath24)"
         id="g20"><path
           inkscape:connector-curvature="0"
           id="path26"
           style="fill:#ffffff;fill-opacity:1;fill-rule:evenodd;stroke:none"
           d="M 0,0 H 1600 V 1200 H 0" /></g></g><g
       id="g28"><g
         clip-path="url(#clipPath34)"
         id="g30"><path
           inkscape:connector-curvature="0"
           id="path36"
           style="fill:#ffffff;fill-opacity:1;fill-rule:evenodd;stroke:none"
           d="m 185.62,153.64 h 1327.77 v 959.75 H 185.62" /></g></g><path
       inkscape:connector-curvature="0"
       id="path38"
       style="fill:none;stroke:#000000;stroke-width:0.5;stroke-linecap:butt;stroke-linejoin:miter;stroke-miterlimit:10;stroke-dasharray:none;stroke-opacity:0.09803922"
       d="m 223.19,153.64 v 959.75" /><path
       inkscape:connector-curvature="0"
       id="path40"
       style="fill:none;stroke:#000000;stroke-width:0.5;stroke-linecap:butt;stroke-linejoin:miter;stroke-miterlimit:10;stroke-dasharray:none;stroke-opacity:0.09803922"
       d="m 473.72,153.64 v 959.75" /><path
       inkscape:connector-curvature="0"
       id="path42"
       style="fill:none;stroke:#000000;stroke-width:0.5;stroke-linecap:butt;stroke-linejoin:miter;stroke-miterlimit:10;stroke-dasharray:none;stroke-opacity:0.09803922"
       d="m 724.24,153.64 v 959.75" /><path
       inkscape:connector-curvature="0"
       id="path44"
       style="fill:none;stroke:#000000;stroke-width:0.5;stroke-linecap:butt;stroke-linejoin:miter;stroke-miterlimit:10;stroke-dasharray:none;stroke-opacity:0.09803922"
       d="m 974.76,153.64 v 959.75" /><path
       inkscape:connector-curvature="0"
       id="path46"
       style="fill:none;stroke:#000000;stroke-width:0.5;stroke-linecap:butt;stroke-linejoin:miter;stroke-miterlimit:10;stroke-dasharray:none;stroke-opacity:0.09803922"
       d="m 1225.28,153.64 v 959.75" /><path
       inkscape:connector-curvature="0"
       id="path48"
       style="fill:none;stroke:#000000;stroke-width:0.5;stroke-linecap:butt;stroke-linejoin:miter;stroke-miterlimit:10;stroke-dasharray:none;stroke-opacity:0.09803922"
       d="m 1475.81,153.64 v 959.75" /><path
       inkscape:connector-curvature="0"
       id="path50"
       style="fill:none;stroke:#000000;stroke-width:1;stroke-linecap:butt;stroke-linejoin:miter;stroke-miterlimit:10;stroke-dasharray:none;stroke-opacity:1"
       d="M 185.62,153.64 H 1513.39" /><path
       inkscape:connector-curvature="0"
       id="path52"
       style="fill:none;stroke:#000000;stroke-width:1;stroke-linecap:butt;stroke-linejoin:miter;stroke-miterlimit:10;stroke-dasharray:none;stroke-opacity:1"
       d="m 223.19,153.64 v 11.52" /><path
       inkscape:connector-curvature="0"
       id="path54"
       style="fill:none;stroke:#000000;stroke-width:1;stroke-linecap:butt;stroke-linejoin:miter;stroke-miterlimit:10;stroke-dasharray:none;stroke-opacity:1"
       d="m 473.72,153.64 v 11.52" /><path
       inkscape:connector-curvature="0"
       id="path56"
       style="fill:none;stroke:#000000;stroke-width:1;stroke-linecap:butt;stroke-linejoin:miter;stroke-miterlimit:10;stroke-dasharray:none;stroke-opacity:1"
       d="m 724.24,153.64 v 11.52" /><path
       inkscape:connector-curvature="0"
       id="path58"
       style="fill:none;stroke:#000000;stroke-width:1;stroke-linecap:butt;stroke-linejoin:miter;stroke-miterlimit:10;stroke-dasharray:none;stroke-opacity:1"
       d="m 974.76,153.64 v 11.52" /><path
       inkscape:connector-curvature="0"
       id="path60"
       style="fill:none;stroke:#000000;stroke-width:1;stroke-linecap:butt;stroke-linejoin:miter;stroke-miterlimit:10;stroke-dasharray:none;stroke-opacity:1"
       d="m 1225.28,153.64 v 11.52" /><path
       inkscape:connector-curvature="0"
       id="path62"
       style="fill:none;stroke:#000000;stroke-width:1;stroke-linecap:butt;stroke-linejoin:miter;stroke-miterlimit:10;stroke-dasharray:none;stroke-opacity:1"
       d="m 1475.81,153.64 v 11.52" /><text
       id="text66"
       style="font-variant:normal;font-weight:normal;font-size:24px;font-family:Helvetica;-inkscape-font-specification:Helvetica;writing-mode:lr-tb;fill:#000000;fill-opacity:1;fill-rule:nonzero;stroke:none"
       transform="scale(1,-1)"
       x="216.69"
       y="-120.44"><tspan
         id="tspan64"
         y="-120.44"
         x="216.69">0</tspan></text>
<text
       id="text70"
       style="font-variant:normal;font-weight:normal;font-size:24px;font-family:Helvetica;-inkscape-font-specification:Helvetica;writing-mode:lr-tb;fill:#000000;fill-opacity:1;fill-rule:nonzero;stroke:none"
       transform="scale(1,-1)"
       x="460.72"
       y="-120.44"><tspan
         id="tspan68"
         sodipodi:role="line"
         y="-120.44"
         x="460.72 474.064">10</tspan></text>
<text
       id="text74"
       style="font-variant:normal;font-weight:normal;font-size:24px;font-family:Helvetica;-inkscape-font-specification:Helvetica;writing-mode:lr-tb;fill:#000000;fill-opacity:1;fill-rule:nonzero;stroke:none"
       transform="scale(1,-1)"
       x="711.23999"
       y="-120.44"><tspan
         id="tspan72"
         sodipodi:role="line"
         y="-120.44"
         x="711.23999 724.58398">20</tspan></text>
<text
       id="text78"
       style="font-variant:normal;font-weight:normal;font-size:24px;font-family:Helvetica;-inkscape-font-specification:Helvetica;writing-mode:lr-tb;fill:#000000;fill-opacity:1;fill-rule:nonzero;stroke:none"
       transform="scale(1,-1)"
       x="961.76001"
       y="-120.44"><tspan
         id="tspan76"
         sodipodi:role="line"
         y="-120.44"
         x="961.76001 975.104">30</tspan></text>
<text
       id="text82"
       style="font-variant:normal;font-weight:normal;font-size:24px;font-family:Helvetica;-inkscape-font-specification:Helvetica;writing-mode:lr-tb;fill:#000000;fill-opacity:1;fill-rule:nonzero;stroke:none"
       transform="scale(1,-1)"
       x="1212.28"
       y="-120.44"><tspan
         id="tspan80"
         sodipodi:role="line"
         y="-120.44"
         x="1212.28 1225.624">40</tspan></text>
<text
       id="text86"
       style="font-variant:normal;font-weight:normal;font-size:24px;font-family:Helvetica;-inkscape-font-specification:Helvetica;writing-mode:lr-tb;fill:#000000;fill-opacity:1;fill-rule:nonzero;stroke:none"
       transform="scale(1,-1)"
       x="1462.8101"
       y="-120.44"><tspan
         id="tspan84"
         sodipodi:role="line"
         y="-120.44"
         x="1462.8101 1476.1541">50</tspan></text>
<text
       id="text90"
       style="font-variant:normal;font-weight:normal;font-size:36px;font-family:Helvetica;-inkscape-font-specification:Helvetica;writing-mode:lr-tb;fill:#000000;fill-opacity:1;fill-rule:nonzero;stroke:none"
       transform="scale(1,-1)"
       x="656.5"
       y="-71.970001"><tspan
         id="tspan88"
         sodipodi:role="line"
         y="-71.970001"
         x="656.5 674.5 694.51599 714.53198 734.54797 754.56403 764.57202 774.58002 794.59601 804.604 814.612 826.59998 846.61597 866.63202 886.64801 906.664 926.67999 944.67999 962.67999 972.68799 984.67603 1010.668 1028.668">subnet 2 frequency (Hz)</tspan></text>
<path
       inkscape:connector-curvature="0"
       id="path92"
       style="fill:none;stroke:#000000;stroke-width:0.5;stroke-linecap:butt;stroke-linejoin:miter;stroke-miterlimit:10;stroke-dasharray:none;stroke-opacity:0.09803922"
       d="M 185.62,171.7 H 1513.39" /><path
       inkscape:connector-curvature="0"
       id="path94"
       style="fill:none;stroke:#000000;stroke-width:0.5;stroke-linecap:butt;stroke-linejoin:miter;stroke-miterlimit:10;stroke-dasharray:none;stroke-opacity:0.09803922"
       d="M 185.62,367.75 H 1513.39" /><path
       inkscape:connector-curvature="0"
       id="path96"
       style="fill:none;stroke:#000000;stroke-width:0.5;stroke-linecap:butt;stroke-linejoin:miter;stroke-miterlimit:10;stroke-dasharray:none;stroke-opacity:0.09803922"
       d="M 185.62,563.81 H 1513.39" /><path
       inkscape:connector-curvature="0"
       id="path98"
       style="fill:none;stroke:#000000;stroke-width:0.5;stroke-linecap:butt;stroke-linejoin:miter;stroke-miterlimit:10;stroke-dasharray:none;stroke-opacity:0.09803922"
       d="M 185.62,759.86 H 1513.39" /><path
       inkscape:connector-curvature="0"
       id="path100"
       style="fill:none;stroke:#000000;stroke-width:0.5;stroke-linecap:butt;stroke-linejoin:miter;stroke-miterlimit:10;stroke-dasharray:none;stroke-opacity:0.09803922"
       d="M 185.62,955.92 H 1513.39" /><path
       inkscape:connector-curvature="0"
       id="path102"
       style="fill:none;stroke:#000000;stroke-width:1;stroke-linecap:butt;stroke-linejoin:miter;stroke-miterlimit:10;stroke-dasharray:none;stroke-opacity:1"
       d="m 185.62,153.64 v 959.75" /><path
       inkscape:connector-curvature="0"
       id="path104"
       style="fill:none;stroke:#000000;stroke-width:1;stroke-linecap:butt;stroke-linejoin:miter;stroke-miterlimit:10;stroke-dasharray:none;stroke-opacity:1"
       d="m 185.62,171.7 h 15.93" /><path
       inkscape:connector-curvature="0"
       id="path106"
       style="fill:none;stroke:#000000;stroke-width:1;stroke-linecap:butt;stroke-linejoin:miter;stroke-miterlimit:10;stroke-dasharray:none;stroke-opacity:1"
       d="m 185.62,367.75 h 15.93" /><path
       inkscape:connector-curvature="0"
       id="path108"
       style="fill:none;stroke:#000000;stroke-width:1;stroke-linecap:butt;stroke-linejoin:miter;stroke-miterlimit:10;stroke-dasharray:none;stroke-opacity:1"
       d="m 185.62,563.81 h 15.93" /><path
       inkscape:connector-curvature="0"
       id="path110"
       style="fill:none;stroke:#000000;stroke-width:1;stroke-linecap:butt;stroke-linejoin:miter;stroke-miterlimit:10;stroke-dasharray:none;stroke-opacity:1"
       d="m 185.62,759.86 h 15.93" /><path
       inkscape:connector-curvature="0"
       id="path112"
       style="fill:none;stroke:#000000;stroke-width:1;stroke-linecap:butt;stroke-linejoin:miter;stroke-miterlimit:10;stroke-dasharray:none;stroke-opacity:1"
       d="m 185.62,955.92 h 15.93" /><text
       id="text116"
       style="font-variant:normal;font-weight:normal;font-size:24px;font-family:Helvetica;-inkscape-font-specification:Helvetica;writing-mode:lr-tb;fill:#000000;fill-opacity:1;fill-rule:nonzero;stroke:none"
       transform="scale(1,-1)"
       x="115.62"
       y="-163.2"><tspan
         id="tspan114"
         sodipodi:role="line"
         y="-163.2"
         x="115.62 128.964 142.308 148.98">32.5</tspan></text>
<text
       id="text120"
       style="font-variant:normal;font-weight:normal;font-size:24px;font-family:Helvetica;-inkscape-font-specification:Helvetica;writing-mode:lr-tb;fill:#000000;fill-opacity:1;fill-rule:nonzero;stroke:none"
       transform="scale(1,-1)"
       x="115.62"
       y="-359.25"><tspan
         id="tspan118"
         sodipodi:role="line"
         y="-359.25"
         x="115.62 128.964 142.308 148.98">35.0</tspan></text>
<text
       id="text124"
       style="font-variant:normal;font-weight:normal;font-size:24px;font-family:Helvetica;-inkscape-font-specification:Helvetica;writing-mode:lr-tb;fill:#000000;fill-opacity:1;fill-rule:nonzero;stroke:none"
       transform="scale(1,-1)"
       x="115.62"
       y="-555.31"><tspan
         id="tspan122"
         sodipodi:role="line"
         y="-555.31"
         x="115.62 128.964 142.308 148.98">37.5</tspan></text>
<text
       id="text128"
       style="font-variant:normal;font-weight:normal;font-size:24px;font-family:Helvetica;-inkscape-font-specification:Helvetica;writing-mode:lr-tb;fill:#000000;fill-opacity:1;fill-rule:nonzero;stroke:none"
       transform="scale(1,-1)"
       x="115.62"
       y="-751.35999"><tspan
         id="tspan126"
         sodipodi:role="line"
         y="-751.35999"
         x="115.62 128.964 142.308 148.98">40.0</tspan></text>
<text
       id="text132"
       style="font-variant:normal;font-weight:normal;font-size:24px;font-family:Helvetica;-inkscape-font-specification:Helvetica;writing-mode:lr-tb;fill:#000000;fill-opacity:1;fill-rule:nonzero;stroke:none"
       transform="scale(1,-1)"
       x="115.62"
       y="-947.41998"><tspan
         id="tspan130"
         sodipodi:role="line"
         y="-947.41998"
         x="115.62 128.964 142.308 148.98">42.5</tspan></text>
<text
       id="text136"
       style="font-variant:normal;font-weight:normal;font-size:36px;font-family:Helvetica;-inkscape-font-specification:Helvetica;writing-mode:lr-tb;fill:#000000;fill-opacity:1;fill-rule:nonzero;stroke:none"
       transform="matrix(0,1,1,0,0,0)"
       x="327.01999"
       y="84.260002"><tspan
         id="tspan134"
         sodipodi:role="line"
         y="84.260002"
         x="327.01999 337.02802 357.04401 367.052 387.06799 395.06 405.06799 425.08401 445.10001 465.116 485.13199 497.12 517.13599 527.14398 535.13599 555.15198 575.16797 585.17603 593.16803 613.18402 623.19202 643.20801 655.19598 675.21198 695.22803 713.22803 723.23602 743.25201 753.26001 773.276 793.29199 813.30798 823.31598 843.33203 853.34003 865.328 885.34399 895.35199 915.36804 925.37604">total generation in areas 2 and 3 (p.u.)</tspan></text>
<path
       inkscape:connector-curvature="0"
       id="path138"
       style="fill:none;stroke:#a6cee3;stroke-width:4;stroke-linecap:butt;stroke-linejoin:miter;stroke-miterlimit:10;stroke-dasharray:none;stroke-opacity:1"
       d="m 223.19,741.4 25.06,-10.98 25.05,-1.4 25.05,-0.07 25.05,-0.08 25.06,-0.11 25.05,-0.13 25.05,-0.15 25.05,-0.18 25.05,-0.2 25.06,-0.23 25.05,-0.25 25.05,-0.27 25.05,-0.29 25.06,-0.32 25.05,-0.34 25.05,-0.36 25.05,-0.38 25.06,0.24 25.05,1.24 25.05,2.16 25.05,3.01 25.05,3.81 25.06,4.6 25.05,5.38 25.05,6.15 25.05,6.94 25.06,7.75 25.05,14.23 25.05,21.87 25.05,20.69 25.05,19.6 25.06,18.56 25.05,17.61 25.05,16.71 25.05,15.87 25.06,15.09 25.05,14.35 25.05,13.65 25.05,13 25.05,12.39 25.06,11.82 25.05,11.27 25.05,10.76 25.05,10.31 25.06,9.87 25.05,9.46 25.05,9.06 25.05,8.69 25.06,8.34 25.05,8" /><path
       inkscape:connector-curvature="0"
       id="path140"
       style="fill:none;stroke:#1f78b4;stroke-width:4;stroke-linecap:butt;stroke-linejoin:miter;stroke-miterlimit:10;stroke-dasharray:none;stroke-opacity:1"
       d="m 223.19,785.29 25.06,-34.63 25.05,-36.55 25.05,-18.33 25.05,-9.24 25.06,-4.88 25.05,-2.61 25.05,-1.32 25.05,-0.99 25.05,-1.08 25.06,-1.17 25.05,-1.26 25.05,-1.33 25.05,-1.4 25.06,-1.45 25.05,-1.51 25.05,-1.55 25.05,-1.59 25.06,-1.61 25.05,-1.49 25.05,-1.25 25.05,-0.95 25.05,-0.46 25.06,0.01 25.05,0.41 25.05,0.79 25.05,1.15 25.06,1.48 25.05,1.8 25.05,7.57 25.05,12.13 25.05,12.41 25.06,12.79 25.05,13 25.05,13.09 25.05,13.08 25.06,12.99 25.05,12.91 25.05,12.74 25.05,12.53 25.05,12.35 25.06,12.52 25.05,12.3 25.05,12.07 25.05,11.96 25.06,11.99 25.05,11.94 25.05,11.77 25.05,11.54 25.06,11.93 25.05,11.75" /><path
       inkscape:connector-curvature="0"
       id="path142"
       style="fill:none;stroke:#b2df8a;stroke-width:4;stroke-linecap:butt;stroke-linejoin:miter;stroke-miterlimit:10;stroke-dasharray:none;stroke-opacity:1"
       d="m 223.19,563.59 25.06,-46.29 25.05,-40.1 25.05,-18.97 25.05,-9.31 25.06,-4.56 25.05,-1.92 25.05,-1.39 25.05,-1.44 25.05,-1.47 25.06,-1.51 25.05,-1.54 25.05,-1.57 25.05,-1.6 25.06,-1.62 25.05,-1.65 25.05,-1.66 25.05,-1.59 25.06,-0.77 25.05,-0.66 25.05,-0.55 25.05,-0.45 25.05,-0.02 25.06,0.49 25.05,0.94 25.05,1.37 25.05,1.76 25.06,2.15 25.05,2.52 25.05,13.38 25.05,21.16 25.05,20.47 25.06,19.76 25.05,19.05 25.05,18.36 25.05,17.7 25.06,17.05 25.05,16.57 25.05,16.17 25.05,15.65 25.05,15.12 25.06,14.57 25.05,14.05 25.05,13.55 25.05,13.05 25.06,12.59 25.05,12.15 25.05,11.71 25.05,11.31 25.06,11.5 25.05,11.29" /><path
       inkscape:connector-curvature="0"
       id="path144"
       style="fill:none;stroke:#33a02c;stroke-width:4;stroke-linecap:butt;stroke-linejoin:miter;stroke-miterlimit:10;stroke-dasharray:none;stroke-opacity:1"
       d="m 223.19,308.08 25.06,-57.57 25.05,-51.15 25.05,5.33 25.05,18.24 25.06,17.72 25.05,14.93 25.05,11.51 25.05,8.52 25.05,6.07 25.06,4.11 25.05,2.55 25.05,1.69 25.05,1.34 25.06,1.04 25.05,0.78 25.05,0.55 25.05,0.35 25.06,0.16 25.05,-0.02 25.05,-0.19 25.05,-0.35 25.05,-0.46 25.06,-0.54 25.05,-0.61 25.05,-0.14 25.05,0.48 25.06,0.84 25.05,1.14 25.05,1.36 25.05,1.56 25.05,1.7 25.06,1.81 25.05,1.91 25.05,1.97 25.05,2.02 25.06,7.94 25.05,19.8 25.05,19.17 25.05,18.57 25.05,18.02 25.06,19.54 25.05,29.17 25.05,28 25.05,26.9 25.06,25.86 25.05,27.28 25.05,28.95 25.05,27.87 25.06,26.85 25.05,25.88" /><g
       id="g146"
       transform="translate(-896.18646)"><g
         clip-path="url(#clipPath152)"
         id="g148"><path
           inkscape:connector-curvature="0"
           id="path154"
           style="fill:#ffffff;fill-opacity:1;fill-rule:evenodd;stroke:none"
           d="m 1158.45,930.19 h 310.68 v 151.2 h -310.68" /></g></g><path
       inkscape:connector-curvature="0"
       id="path156"
       style="fill:none;stroke:#000000;stroke-width:1;stroke-linecap:butt;stroke-linejoin:miter;stroke-miterlimit:10;stroke-dasharray:none;stroke-opacity:1"
       d="m 262.26354,930.19 h 310.68 v 151.2 h -310.68 v -151.2" /><path
       inkscape:connector-curvature="0"
       id="path158"
       style="fill:none;stroke:#a6cee3;stroke-width:2;stroke-linecap:butt;stroke-linejoin:miter;stroke-miterlimit:10;stroke-dasharray:none;stroke-opacity:1"
       d="m 277.01354,1051.15 h 88.52" /><text
       id="text162"
       style="font-variant:normal;font-weight:normal;font-size:24px;font-family:Helvetica;-inkscape-font-specification:Helvetica;writing-mode:lr-tb;fill:#000000;fill-opacity:1;fill-rule:nonzero;stroke:none"
       transform="scale(1,-1)"
       x="380.28351"
       y="-1042.65"><tspan
         id="tspan160"
         sodipodi:role="line"
         y="-1042.65"
         x="380.28351 400.27557 413.61957 418.94757 425.61957 430.94757 437.61957 450.96356 458.95551 478.94757 484.27557 497.61957 510.96356 516.29156">multiterminal2</tspan></text>
<path
       inkscape:connector-curvature="0"
       id="path164"
       style="fill:none;stroke:#1f78b4;stroke-width:2;stroke-linecap:butt;stroke-linejoin:miter;stroke-miterlimit:10;stroke-dasharray:none;stroke-opacity:1"
       d="m 277.01354,1020.91 h 88.52" /><text
       id="text168"
       style="font-variant:normal;font-weight:normal;font-size:24px;font-family:Helvetica;-inkscape-font-specification:Helvetica;writing-mode:lr-tb;fill:#000000;fill-opacity:1;fill-rule:nonzero;stroke:none"
       transform="scale(1,-1)"
       x="380.28351"
       y="-1012.41"><tspan
         id="tspan166"
         sodipodi:role="line"
         y="-1012.41"
         x="380.28351 400.27557 413.61957 418.94757 425.61957 430.94757 437.61957 450.96356 458.95551 478.94757 484.27557 497.61957 510.96356 516.29156">multiterminal4</tspan></text>
<path
       inkscape:connector-curvature="0"
       id="path170"
       style="fill:none;stroke:#b2df8a;stroke-width:2;stroke-linecap:butt;stroke-linejoin:miter;stroke-miterlimit:10;stroke-dasharray:none;stroke-opacity:1"
       d="m 277.01354,990.67 h 88.52" /><text
       id="text174"
       style="font-variant:normal;font-weight:normal;font-size:24px;font-family:Helvetica;-inkscape-font-specification:Helvetica;writing-mode:lr-tb;fill:#000000;fill-opacity:1;fill-rule:nonzero;stroke:none"
       transform="scale(1,-1)"
       x="380.28351"
       y="-982.16998"><tspan
         id="tspan172"
         sodipodi:role="line"
         y="-982.16998"
         x="380.28351 400.27557 413.61957 418.94757 425.61957 430.94757 437.61957 450.96356 458.95551 478.94757 484.27557 497.61957 510.96356 516.29156">multiterminal7</tspan></text>
<path
       inkscape:connector-curvature="0"
       id="path176"
       style="fill:none;stroke:#33a02c;stroke-width:2;stroke-linecap:butt;stroke-linejoin:miter;stroke-miterlimit:10;stroke-dasharray:none;stroke-opacity:1"
       d="m 277.01354,960.43 h 88.52" /><text
       id="text180"
       style="font-variant:normal;font-weight:normal;font-size:24px;font-family:Helvetica;-inkscape-font-specification:Helvetica;writing-mode:lr-tb;fill:#000000;fill-opacity:1;fill-rule:nonzero;stroke:none"
       transform="scale(1,-1)"
       x="380.28351"
       y="-951.92999"><tspan
         id="tspan178"
         sodipodi:role="line"
         y="-951.92999"
         x="380.28351 400.27557 413.61957 418.94757 425.61957 430.94757 437.61957 450.96356 458.95551 478.94757 484.27557 497.61957 510.96356 516.29156 529.63556">multiterminal10</tspan></text>
</g></svg>