<?xml version="1.0" encoding="UTF-8" standalone="no"?>
<!-- Created with Inkscape (http://www.inkscape.org/) -->

<svg
   xmlns:dc="http://purl.org/dc/elements/1.1/"
   xmlns:cc="http://creativecommons.org/ns#"
   xmlns:rdf="http://www.w3.org/1999/02/22-rdf-syntax-ns#"
   xmlns:svg="http://www.w3.org/2000/svg"
   xmlns="http://www.w3.org/2000/svg"
   xmlns:sodipodi="http://sodipodi.sourceforge.net/DTD/sodipodi-0.dtd"
   xmlns:inkscape="http://www.inkscape.org/namespaces/inkscape"
   version="1.1"
   id="svg2"
   xml:space="preserve"
   width="668.98438"
   height="515.16559"
   viewBox="0 0 668.98438 515.16559"
   sodipodi:docname="14bus_twoarea.svg"
   inkscape:version="0.92.5 (2060ec1f9f, 2020-04-08)"><metadata
     id="metadata8"><rdf:RDF><cc:Work
         rdf:about=""><dc:format>image/svg+xml</dc:format><dc:type
           rdf:resource="http://purl.org/dc/dcmitype/StillImage" /><dc:title></dc:title></cc:Work></rdf:RDF></metadata><defs
     id="defs6"><clipPath
       clipPathUnits="userSpaceOnUse"
       id="clipPath182"><path
         d="M 0,792 H 612 V 0 H 0 Z"
         id="path180"
         inkscape:connector-curvature="0" /></clipPath><clipPath
       clipPathUnits="userSpaceOnUse"
       id="clipPath368"><path
         d="M 0,792 H 612 V 0 H 0 Z"
         id="path366"
         inkscape:connector-curvature="0" /></clipPath></defs><sodipodi:namedview
     pagecolor="#ffffff"
     bordercolor="#666666"
     borderopacity="1"
     objecttolerance="10"
     gridtolerance="10"
     guidetolerance="10"
     inkscape:pageopacity="0"
     inkscape:pageshadow="2"
     inkscape:window-width="1920"
     inkscape:window-height="1016"
     id="namedview4"
     showgrid="false"
     inkscape:snap-object-midpoints="true"
     inkscape:snap-center="true"
     fit-margin-top="0"
     fit-margin-left="0"
     fit-margin-right="0"
     fit-margin-bottom="0"
     inkscape:zoom="1.2642212"
     inkscape:cx="337.50129"
     inkscape:cy="230.02439"
     inkscape:window-x="0"
     inkscape:window-y="27"
     inkscape:window-maximized="1"
     inkscape:current-layer="g10" /><g
     id="g10"
     inkscape:groupmode="layer"
     inkscape:label="14bus_subnet2copy"
     transform="matrix(1.3333333,0,0,-1.3333333,-66.666665,760.77758)"><g
       id="g12"
       transform="translate(50.0004,423.5004)"><path
         d="M 0,0 H 34.75 Z"
         style="fill:#ffffff;fill-opacity:1;fill-rule:nonzero;stroke:none"
         id="path14"
         inkscape:connector-curvature="0" /></g><g
       id="g16"
       transform="translate(50,423.5)"><path
         d="M 0,0 H 34.75"
         style="fill:none;stroke:#2c3792;stroke-width:3;stroke-linecap:butt;stroke-linejoin:miter;stroke-miterlimit:10;stroke-dasharray:none;stroke-opacity:1"
         id="path18"
         inkscape:connector-curvature="0" /></g><g
       id="g20"
       transform="translate(137.25,296.7498)"><path
         d="M 0,0 H 48.75 Z"
         style="fill:#ffffff;fill-opacity:1;fill-rule:nonzero;stroke:none"
         id="path22"
         inkscape:connector-curvature="0" /></g><g
       id="g24"
       transform="translate(137.25,296.75)"><path
         d="M 0,0 H 48.75"
         style="fill:none;stroke:#2c3792;stroke-width:3;stroke-linecap:butt;stroke-linejoin:miter;stroke-miterlimit:10;stroke-dasharray:none;stroke-opacity:1"
         id="path26"
         inkscape:connector-curvature="0" /></g><g
       id="g28"
       transform="translate(281.25,375.4998)"><path
         d="M 0,0 H 36.25 Z"
         style="fill:#ffffff;fill-opacity:1;fill-rule:nonzero;stroke:none"
         id="path30"
         inkscape:connector-curvature="0" /></g><g
       id="g32"
       transform="translate(281.25,375.5)"><path
         d="M 0,0 H 36.25"
         style="fill:none;stroke:#100f0d;stroke-width:3;stroke-linecap:butt;stroke-linejoin:miter;stroke-miterlimit:10;stroke-dasharray:none;stroke-opacity:1"
         id="path34"
         inkscape:connector-curvature="0" /></g><g
       id="g36"
       transform="translate(279,427.2498)"><path
         d="M 0,0 H 52 Z"
         style="fill:#ffffff;fill-opacity:1;fill-rule:nonzero;stroke:none"
         id="path38"
         inkscape:connector-curvature="0" /></g><g
       id="g40"
       transform="translate(279,427.25)"><path
         d="M 0,0 H 52"
         style="fill:none;stroke:#100f0d;stroke-width:3;stroke-linecap:butt;stroke-linejoin:miter;stroke-miterlimit:10;stroke-dasharray:none;stroke-opacity:1"
         id="path42"
         inkscape:connector-curvature="0" /></g><g
       id="g44"
       transform="translate(280.6254,543.5001)"><path
         d="M 0,0 H 36.875 Z"
         style="fill:#ffffff;fill-opacity:1;fill-rule:nonzero;stroke:none"
         id="path46"
         inkscape:connector-curvature="0" /></g><g
       id="g48"
       transform="translate(280.625,543.5)"><path
         d="M 0,0 H 36.875"
         style="fill:none;stroke:#100f0d;stroke-width:3;stroke-linecap:butt;stroke-linejoin:miter;stroke-miterlimit:10;stroke-dasharray:none;stroke-opacity:1"
         id="path50"
         inkscape:connector-curvature="0" /></g><g
       id="g52"
       transform="translate(212.7501,508.5)"><path
         d="M 0,0 H 24.375 Z"
         style="fill:#ffffff;fill-opacity:1;fill-rule:nonzero;stroke:none"
         id="path54"
         inkscape:connector-curvature="0" /></g><g
       id="g56"
       transform="translate(212.75,508.5)"><path
         d="M 0,0 H 24.375"
         style="fill:none;stroke:#100f0d;stroke-width:3;stroke-linecap:butt;stroke-linejoin:miter;stroke-miterlimit:10;stroke-dasharray:none;stroke-opacity:1"
         id="path58"
         inkscape:connector-curvature="0" /></g><g
       id="g60"
       transform="translate(350.7498,479.9997)"><path
         d="M 0,0 H 24.376 Z"
         style="fill:#ffffff;fill-opacity:1;fill-rule:nonzero;stroke:none"
         id="path62"
         inkscape:connector-curvature="0" /></g><g
       id="g64"
       transform="translate(350.75,480)"><path
         d="M 0,0 H 24.375"
         style="fill:none;stroke:#100f0d;stroke-width:3;stroke-linecap:butt;stroke-linejoin:miter;stroke-miterlimit:10;stroke-dasharray:none;stroke-opacity:1"
         id="path66"
         inkscape:connector-curvature="0" /></g><g
       id="g68"
       transform="translate(392.7501,468)"><path
         d="M 0,0 H 24.375 Z"
         style="fill:#ffffff;fill-opacity:1;fill-rule:nonzero;stroke:none"
         id="path70"
         inkscape:connector-curvature="0" /></g><g
       id="g72"
       transform="translate(392.75,468)"><path
         d="M 0,0 H 24.375"
         style="fill:none;stroke:#100f0d;stroke-width:3;stroke-linecap:butt;stroke-linejoin:miter;stroke-miterlimit:10;stroke-dasharray:none;stroke-opacity:1"
         id="path74"
         inkscape:connector-curvature="0" /></g><g
       id="g76"
       transform="translate(382.7502,513.5004)"><path
         d="M 0,0 H 26.75 Z"
         style="fill:#ffffff;fill-opacity:1;fill-rule:nonzero;stroke:none"
         id="path78"
         inkscape:connector-curvature="0" /></g><g
       id="g80"
       transform="translate(382.75,513.5)"><path
         d="M 0,0 H 26.75"
         style="fill:none;stroke:#100f0d;stroke-width:3;stroke-linecap:butt;stroke-linejoin:miter;stroke-miterlimit:10;stroke-dasharray:none;stroke-opacity:1"
         id="path82"
         inkscape:connector-curvature="0" /></g><g
       id="g84"
       transform="translate(438.75,439.4997)"><path
         d="M 0,0 H 70.25 Z"
         style="fill:#ffffff;fill-opacity:1;fill-rule:nonzero;stroke:none"
         id="path86"
         inkscape:connector-curvature="0" /></g><g
       id="g88"
       transform="translate(438.75,439.5)"><path
         d="M 0,0 H 70.25"
         style="fill:none;stroke:#100f0d;stroke-width:3;stroke-linecap:butt;stroke-linejoin:miter;stroke-miterlimit:10;stroke-dasharray:none;stroke-opacity:1"
         id="path90"
         inkscape:connector-curvature="0" /></g><g
       id="g92"
       transform="translate(438.75,358.0002)"><path
         d="M 0,0 H 48.25 Z"
         style="fill:#ffffff;fill-opacity:1;fill-rule:nonzero;stroke:none"
         id="path94"
         inkscape:connector-curvature="0" /></g><g
       id="g96"
       transform="translate(438.75,358)"><path
         d="M 0,0 H 48.25"
         style="fill:none;stroke:#100f0d;stroke-width:3;stroke-linecap:butt;stroke-linejoin:miter;stroke-miterlimit:10;stroke-dasharray:none;stroke-opacity:1"
         id="path98"
         inkscape:connector-curvature="0" /></g><g
       id="g100"
       transform="translate(450.6876,222.3333)"><path
         d="M 0,0 H 24.375 Z"
         style="fill:#ffffff;fill-opacity:1;fill-rule:nonzero;stroke:none"
         id="path102"
         inkscape:connector-curvature="0" /></g><g
       id="g104"
       transform="translate(450.6875,222.333)"><path
         d="M 0,0 H 24.375"
         style="fill:none;stroke:#2c3792;stroke-width:3;stroke-linecap:butt;stroke-linejoin:miter;stroke-miterlimit:10;stroke-dasharray:none;stroke-opacity:1"
         id="path106"
         inkscape:connector-curvature="0" /></g><g
       id="g108"
       transform="translate(518.7618,391.6458)"><path
         d="M 0,0 V 15.417 Z"
         style="fill:#ffffff;fill-opacity:1;fill-rule:nonzero;stroke:none"
         id="path110"
         inkscape:connector-curvature="0" /></g><g
       id="g112"
       transform="translate(518.7617,391.6455)"><path
         d="M 0,0 V 15.417"
         style="fill:none;stroke:#100f0d;stroke-width:3;stroke-linecap:butt;stroke-linejoin:miter;stroke-miterlimit:10;stroke-dasharray:none;stroke-opacity:1"
         id="path114"
         inkscape:connector-curvature="0" /></g><g
       id="g116"
       transform="translate(289,375.5)"><path
         d="M 0,0 V 10.167 H -29.697"
         style="fill:none;stroke:#100f0d;stroke-width:1;stroke-linecap:butt;stroke-linejoin:miter;stroke-miterlimit:10;stroke-dasharray:none;stroke-opacity:1"
         id="path118"
         inkscape:connector-curvature="0" /></g><g
       id="g120"
       transform="translate(262.1118,389.3701)"><path
         d="M 0,0 -1.573,-3.703 0,-7.406 -8.778,-3.703 Z"
         style="fill:#100f0d;fill-opacity:1;fill-rule:nonzero;stroke:none"
         id="path122"
         inkscape:connector-curvature="0" /></g><g
       id="g124"
       transform="translate(468.333,312.75)"><path
         d="m 0,0 v -94.649 -9.768 h 34.697"
         style="fill:none;stroke:#2c3792;stroke-width:1;stroke-linecap:butt;stroke-linejoin:miter;stroke-miterlimit:10;stroke-dasharray:none;stroke-opacity:1"
         id="path126"
         inkscape:connector-curvature="0" /></g><g
       id="g128"
       transform="translate(500.2217,204.6299)"><path
         d="M 0,0 1.573,3.703 0,7.406 8.778,3.703 Z"
         style="fill:#2c3792;fill-opacity:1;fill-rule:nonzero;stroke:none"
         id="path130"
         inkscape:connector-curvature="0" /></g><g
       id="g132"
       transform="translate(478.333,358)"><path
         d="M 0,0 V -17.667 H 38.697"
         style="fill:none;stroke:#100f0d;stroke-width:1;stroke-linecap:butt;stroke-linejoin:miter;stroke-miterlimit:10;stroke-dasharray:none;stroke-opacity:1"
         id="path134"
         inkscape:connector-curvature="0" /></g><g
       id="g136"
       transform="translate(514.2217,336.6299)"><path
         d="M 0,0 1.573,3.703 0,7.406 8.778,3.703 Z"
         style="fill:#100f0d;fill-opacity:1;fill-rule:nonzero;stroke:none"
         id="path138"
         inkscape:connector-curvature="0" /></g><g
       id="g140"
       transform="translate(392.75,513.5)"><path
         d="M 0,0 V -11.167 L -81.75,18.167 V 30"
         style="fill:none;stroke:#100f0d;stroke-width:1;stroke-linecap:butt;stroke-linejoin:miter;stroke-miterlimit:10;stroke-dasharray:none;stroke-opacity:1"
         id="path142"
         inkscape:connector-curvature="0" /></g><g
       id="g144"
       transform="translate(286.3335,543.5)"><path
         d="m 0,0 v -11.833 l -44,-38 H -56.667 V -35"
         style="fill:none;stroke:#100f0d;stroke-width:1;stroke-linecap:butt;stroke-linejoin:miter;stroke-miterlimit:10;stroke-dasharray:none;stroke-opacity:1"
         id="path146"
         inkscape:connector-curvature="0" /></g><g
       id="g148"
       transform="translate(311,428.4165)"><path
         d="M 0,0 V 19.25 L 45.333,39.458 V 51.583"
         style="fill:none;stroke:#100f0d;stroke-width:1;stroke-linecap:butt;stroke-linejoin:miter;stroke-miterlimit:10;stroke-dasharray:none;stroke-opacity:1"
         id="path150"
         inkscape:connector-curvature="0" /></g><g
       id="g152"
       transform="translate(401,468)"><path
         d="M 0,0 V -7 L -34,0 V 12 24.155"
         style="fill:none;stroke:#100f0d;stroke-width:1;stroke-linecap:butt;stroke-linejoin:miter;stroke-miterlimit:10;stroke-dasharray:none;stroke-opacity:1"
         id="path154"
         inkscape:connector-curvature="0" /></g><g
       id="g156"
       transform="translate(370.7031,489.3467)"><path
         d="M 0,0 -3.703,1.573 -7.406,0 -3.703,8.778 Z"
         style="fill:#100f0d;fill-opacity:1;fill-rule:nonzero;stroke:none"
         id="path158"
         inkscape:connector-curvature="0" /></g><g
       id="g160"
       transform="translate(409.5,479.0303)"><path
         d="m 0,0 v -11.03 -9.667 l 36.167,-8 V -39.53 -71.543"
         style="fill:none;stroke:#100f0d;stroke-width:1;stroke-linecap:butt;stroke-linejoin:miter;stroke-miterlimit:10;stroke-dasharray:none;stroke-opacity:1"
         id="path162"
         inkscape:connector-curvature="0" /></g><g
       id="g164"
       transform="translate(405.7969,476.2217)"><path
         d="M 0,0 3.703,1.573 7.406,0 3.703,8.778 Z"
         style="fill:#100f0d;fill-opacity:1;fill-rule:nonzero;stroke:none"
         id="path166"
         inkscape:connector-curvature="0" /></g><g
       id="g168"
       transform="translate(500.667,439.5)"><path
         d="M 0,0 V 11.5 H 28.363"
         style="fill:none;stroke:#100f0d;stroke-width:1;stroke-linecap:butt;stroke-linejoin:miter;stroke-miterlimit:10;stroke-dasharray:none;stroke-opacity:1"
         id="path170"
         inkscape:connector-curvature="0" /></g><g
       id="g172"
       transform="translate(526.2217,447.2969)"><path
         d="M 0,0 1.573,3.703 0,7.406 8.778,3.703 Z"
         style="fill:#100f0d;fill-opacity:1;fill-rule:nonzero;stroke:none"
         id="path174"
         inkscape:connector-curvature="0" /></g><g
       id="g176"><g
         id="g178"
         clip-path="url(#clipPath182)"><g
           id="g184"
           transform="translate(76.375,448.5)"><path
             d="m 0,0 c 0,-4.971 -4.029,-9 -9,-9 -4.971,0 -9,4.029 -9,9 0,4.971 4.029,9 9,9 4.971,0 9,-4.029 9,-9 z"
             style="fill:none;stroke:#2c3792;stroke-width:1;stroke-linecap:butt;stroke-linejoin:miter;stroke-miterlimit:10;stroke-dasharray:none;stroke-opacity:1"
             id="path186"
             inkscape:connector-curvature="0" /></g><g
           id="g188"
           transform="translate(238.6665,411.7085)"><path
             d="m 0,0 c 0,-4.971 -4.029,-9 -9,-9 -4.97,0 -9,4.029 -9,9 0,4.97 4.03,9 9,9 4.971,0 9,-4.03 9,-9 z"
             style="fill:none;stroke:#100f0d;stroke-width:1;stroke-linecap:butt;stroke-linejoin:miter;stroke-miterlimit:10;stroke-dasharray:none;stroke-opacity:1"
             id="path190"
             inkscape:connector-curvature="0" /></g><g
           id="g192"
           transform="translate(163.3335,271.75)"><path
             d="m 0,0 c 0,-4.971 -4.03,-9 -9,-9 -4.971,0 -9,4.029 -9,9 0,4.971 4.029,9 9,9 4.97,0 9,-4.029 9,-9 z"
             style="fill:none;stroke:#2c3792;stroke-width:1;stroke-linecap:butt;stroke-linejoin:miter;stroke-miterlimit:10;stroke-dasharray:none;stroke-opacity:1"
             id="path194"
             inkscape:connector-curvature="0" /></g><g
           id="g196"
           transform="translate(465.333,193.709)"><path
             d="m 0,0 c 0,-4.97 -4.029,-9 -9,-9 -4.971,0 -9,4.03 -9,9 0,4.971 4.029,9 9,9 4.971,0 9,-4.029 9,-9 z"
             style="fill:none;stroke:#2c3792;stroke-width:1;stroke-linecap:butt;stroke-linejoin:miter;stroke-miterlimit:10;stroke-dasharray:none;stroke-opacity:1"
             id="path198"
             inkscape:connector-curvature="0" /></g><g
           id="g200"
           transform="translate(551.2383,399.354)"><path
             d="m 0,0 c 0,-4.97 -4.029,-9 -9,-9 -4.971,0 -9,4.03 -9,9 0,4.971 4.029,9 9,9 4.971,0 9,-4.029 9,-9 z"
             style="fill:none;stroke:#100f0d;stroke-width:1;stroke-linecap:butt;stroke-linejoin:miter;stroke-miterlimit:10;stroke-dasharray:none;stroke-opacity:1"
             id="path202"
             inkscape:connector-curvature="0" /></g><g
           id="g204"
           transform="translate(289.375,390.083)"><path
             d="m 0,0 c 0,0 0,5 5,5 5,0 5,-5 5,-5 0,0 0,5 5,5 5,0 5,-5 5,-5"
             style="fill:none;stroke:#100f0d;stroke-width:1;stroke-linecap:butt;stroke-linejoin:miter;stroke-miterlimit:4;stroke-dasharray:none;stroke-opacity:1"
             id="path206"
             inkscape:connector-curvature="0" /></g><g
           id="g208"
           transform="translate(309.375,409.9873)"><path
             d="m 0,0 c 0,0 0,-5 -5,-5 -5,0 -5,5 -5,5 0,0 0,-5 -5,-5 -5,0 -5,5 -5,5"
             style="fill:none;stroke:#100f0d;stroke-width:1;stroke-linecap:butt;stroke-linejoin:miter;stroke-miterlimit:4;stroke-dasharray:none;stroke-opacity:1"
             id="path210"
             inkscape:connector-curvature="0" /></g><g
           id="g212"
           transform="translate(166.3335,296.75)"><path
             d="M 0,0 V 20.917 L 132.729,14.083 V 44.8"
             style="fill:none;stroke:#2c3792;stroke-width:1;stroke-linecap:butt;stroke-linejoin:miter;stroke-miterlimit:10;stroke-dasharray:none;stroke-opacity:1"
             id="path214"
             inkscape:connector-curvature="0" /></g><g
           id="g216"
           transform="translate(299.375,409.9873)"><path
             d="m 0,0 v 17.263 l -0.312,116.25 v 21.113"
             style="fill:none;stroke:#100f0d;stroke-width:1;stroke-linecap:butt;stroke-linejoin:miter;stroke-miterlimit:10;stroke-dasharray:none;stroke-opacity:1"
             id="path218"
             inkscape:connector-curvature="0" /></g><g
           id="g220"
           transform="translate(302.7656,561.8052)"><path
             d="M 0,0 -3.703,1.573 -7.406,0 -3.703,8.778 Z"
             style="fill:#100f0d;fill-opacity:1;fill-rule:nonzero;stroke:none"
             id="path222"
             inkscape:connector-curvature="0" /></g><g
           id="g224"
           transform="translate(401,531.0303)"><path
             d="m 0,0 v -17.53 -13.834 l 70,-25.333 v -34.833 -6.792 c 0,0 5,0 5,-5 0,-5 -5,-5 -5,-5 0,0 5,0 5,-5 0,-5 -5,-5 -5,-5 0,0 5,0 5,-5 0,-5 -5,-5 -5,-5 v -6.708 c 0,0 5,0 5,-5 0,-5 -5,-5 -5,-5 0,0 5,0 5,-5 0,-5 -5,-5 -5,-5 0,0 5,0 5,-5 0,-5 -5,-5 -5,-5 v -8"
             style="fill:none;stroke:#100f0d;stroke-width:1;stroke-linecap:butt;stroke-linejoin:miter;stroke-miterlimit:10;stroke-dasharray:none;stroke-opacity:1"
             id="path226"
             inkscape:connector-curvature="0" /></g><g
           id="g228"
           transform="translate(397.2969,528.2217)"><path
             d="M 0,0 3.703,1.573 7.406,0 3.703,8.778 Z"
             style="fill:#100f0d;fill-opacity:1;fill-rule:nonzero;stroke:none"
             id="path230"
             inkscape:connector-curvature="0" /></g><g
           id="g232"
           transform="translate(435.667,390.083)"><path
             d="m 0,0 c 0,0 0,5 5,5 5,0 5,-5 5,-5 0,0 0,5 5,5 5,0 5,-5 5,-5"
             style="fill:none;stroke:#100f0d;stroke-width:1;stroke-linecap:butt;stroke-linejoin:miter;stroke-miterlimit:4;stroke-dasharray:none;stroke-opacity:1"
             id="path234"
             inkscape:connector-curvature="0" /></g><g
           id="g236"
           transform="translate(455.667,407.4873)"><path
             d="m 0,0 c 0,0 0,-5 -5,-5 -5,0 -5,5 -5,5 0,0 0,-5 -5,-5 -5,0 -5,5 -5,5"
             style="fill:none;stroke:#100f0d;stroke-width:1;stroke-linecap:butt;stroke-linejoin:miter;stroke-miterlimit:4;stroke-dasharray:none;stroke-opacity:1"
             id="path238"
             inkscape:connector-curvature="0" /></g><g
           id="g240"
           transform="translate(311,331.6504)"><path
             d="m 0,0 v -21.317 l 134.667,-8.467 V -18.9"
             style="fill:none;stroke:#2c3792;stroke-width:1;stroke-linecap:butt;stroke-linejoin:miter;stroke-miterlimit:10;stroke-dasharray:none;stroke-opacity:1"
             id="path242"
             inkscape:connector-curvature="0" /></g><g
           id="g244"
           transform="translate(471,399.354)"><path
             d="m 0,0 h 7.333 c 0,0 0,5 5,5 5,0 5,-5 5,-5 0,0 0,5 5,5 5,0 5,-5 5,-5 0,0 0,5 5,5 5,0 5,-5 5,-5 h 10.429 14.476"
             style="fill:none;stroke:#100f0d;stroke-width:1;stroke-linecap:butt;stroke-linejoin:miter;stroke-miterlimit:4;stroke-dasharray:none;stroke-opacity:1"
             id="path246"
             inkscape:connector-curvature="0" /></g><g
           id="g248"
           transform="translate(238.6665,411.7085)"><path
             d="m 0,0 h 47.667 v 15.542 7.75 l -66,50 v 23.5 12.53"
             style="fill:none;stroke:#100f0d;stroke-width:1;stroke-linecap:butt;stroke-linejoin:miter;stroke-miterlimit:10;stroke-dasharray:none;stroke-opacity:1"
             id="path250"
             inkscape:connector-curvature="0" /></g><g
           id="g252"
           transform="translate(224.0366,518.2217)"><path
             d="M 0,0 -3.703,1.573 -7.406,0 -3.703,8.778 Z"
             style="fill:#100f0d;fill-opacity:1;fill-rule:nonzero;stroke:none"
             id="path254"
             inkscape:connector-curvature="0" /></g><g
           id="g256"
           transform="translate(322.333,427.25)"><path
             d="M 0,0 V 12.25 H 28.03"
             style="fill:none;stroke:#100f0d;stroke-width:1;stroke-linecap:butt;stroke-linejoin:miter;stroke-miterlimit:10;stroke-dasharray:none;stroke-opacity:1"
             id="path258"
             inkscape:connector-curvature="0" /></g><g
           id="g260"
           transform="translate(347.5547,435.7969)"><path
             d="M 0,0 1.573,3.703 0,7.406 8.778,3.703 Z"
             style="fill:#100f0d;fill-opacity:1;fill-rule:nonzero;stroke:none"
             id="path262"
             inkscape:connector-curvature="0" /></g><g
           id="g264"
           transform="translate(456.333,202.709)"><path
             d="m 0,0 v 19.624 12.667 l -278,51.333 v 10.417 11.583 L 0,90.445 v 19.596"
             style="fill:none;stroke:#2c3792;stroke-width:1;stroke-linecap:butt;stroke-linejoin:miter;stroke-miterlimit:10;stroke-dasharray:none;stroke-opacity:1"
             id="path266"
             inkscape:connector-curvature="0" /></g><g
           id="g268"
           transform="translate(154.3335,280.75)"><path
             d="M 0,0 V 16"
             style="fill:none;stroke:#2c3792;stroke-width:1;stroke-linecap:butt;stroke-linejoin:miter;stroke-miterlimit:10;stroke-dasharray:none;stroke-opacity:1"
             id="path270"
             inkscape:connector-curvature="0" /></g><g
           id="g272"
           transform="translate(67.375,439.5)"><path
             d="M 0,0 V -16"
             style="fill:none;stroke:#2c3792;stroke-width:1;stroke-linecap:butt;stroke-linejoin:miter;stroke-miterlimit:10;stroke-dasharray:none;stroke-opacity:1"
             id="path274"
             inkscape:connector-curvature="0" /></g><g
           id="g276"
           transform="translate(58.375,423.5)"><path
             d="m 0,0 v -16.013 l 86.625,-88.337 v -22.4 -9.75 h -39.03"
             style="fill:none;stroke:#2c3792;stroke-width:1;stroke-linecap:butt;stroke-linejoin:miter;stroke-miterlimit:10;stroke-dasharray:none;stroke-opacity:1"
             id="path278"
             inkscape:connector-curvature="0" /></g><g
           id="g280"
           transform="translate(108.7783,290.7031)"><path
             d="M 0,0 -1.573,-3.703 0,-7.406 -8.778,-3.703 Z"
             style="fill:#2c3792;fill-opacity:1;fill-rule:nonzero;stroke:none"
             id="path282"
             inkscape:connector-curvature="0" /></g><g
           id="g284"
           transform="translate(76.375,423.5)"><path
             d="m 0,0 v -16.013 l 181.812,-85.006 30.813,-1.931 v 11.1"
             style="fill:none;stroke:#2c3792;stroke-width:1;stroke-linecap:butt;stroke-linejoin:miter;stroke-miterlimit:10;stroke-dasharray:none;stroke-opacity:1"
             id="path286"
             inkscape:connector-curvature="0" /></g><g
           id="g288"
           transform="translate(280.9375,331.6504)"><path
             d="M 0,0 H 36.25"
             style="fill:#ffffff;fill-opacity:1;fill-rule:nonzero;stroke:#2c3792;stroke-width:3;stroke-linecap:butt;stroke-linejoin:miter;stroke-miterlimit:10;stroke-dasharray:none;stroke-opacity:1"
             id="path290"
             inkscape:connector-curvature="0" /></g><g
           id="g292"
           transform="translate(438.75,312.75)"><path
             d="M 0,0 H 48.25"
             style="fill:#ffffff;fill-opacity:1;fill-rule:nonzero;stroke:#2c3792;stroke-width:3;stroke-linecap:butt;stroke-linejoin:miter;stroke-miterlimit:10;stroke-dasharray:none;stroke-opacity:1"
             id="path294"
             inkscape:connector-curvature="0" /></g><g
           id="g296"
           transform="translate(445.667,390.083)"><path
             d="M 0,0 V -31.779"
             style="fill:none;stroke:#100f0d;stroke-width:1;stroke-linecap:butt;stroke-linejoin:miter;stroke-miterlimit:10;stroke-dasharray:none;stroke-opacity:1"
             id="path298"
             inkscape:connector-curvature="0" /></g><g
           id="g300"
           transform="translate(461.875,323.6543)"><path
             d="M 0,0 V -10.904"
             style="fill:none;stroke:#2c3792;stroke-width:1;stroke-linecap:butt;stroke-linejoin:miter;stroke-miterlimit:10;stroke-dasharray:none;stroke-opacity:1"
             id="path302"
             inkscape:connector-curvature="0" /></g><g
           id="g304"
           transform="translate(461.875,349.167)"><path
             d="M 0,0 V 8.833"
             style="fill:none;stroke:#100f0d;stroke-width:1;stroke-linecap:butt;stroke-linejoin:miter;stroke-miterlimit:10;stroke-dasharray:none;stroke-opacity:1"
             id="path306"
             inkscape:connector-curvature="0" /></g><g
           id="g308"
           transform="translate(299.375,390.083)"><path
             d="M 0,0 V -23.633"
             style="fill:none;stroke:#100f0d;stroke-width:1;stroke-linecap:butt;stroke-linejoin:miter;stroke-miterlimit:10;stroke-dasharray:none;stroke-opacity:1"
             id="path310"
             inkscape:connector-curvature="0" /></g></g></g><path
       d="m 286.612,366.45 h 24.9 v -24.9 h -24.9 z"
       style="fill:none;stroke:#110f0d;stroke-width:1;stroke-linecap:butt;stroke-linejoin:miter;stroke-miterlimit:10;stroke-dasharray:none;stroke-opacity:1"
       id="path356"
       inkscape:connector-curvature="0" /><g
       id="g358"
       transform="translate(288.3125,343.5498)"><path
         d="M 0,0 21.4,21.101"
         style="fill:none;stroke:#110f0d;stroke-width:0.5;stroke-linecap:butt;stroke-linejoin:miter;stroke-miterlimit:10;stroke-dasharray:none;stroke-opacity:1"
         id="path360"
         inkscape:connector-curvature="0" /></g><g
       id="g362"><g
         id="g364"
         clip-path="url(#clipPath368)"><g
           id="g370"
           transform="translate(291.6748,363.6504)"><path
             d="m 0,0 h 0.2 c -1.4,-0.5 -1.8,-2.601 -1.8,-3.2 0,-0.8 0.4,-1 0.7,-1 0.7,0 1.3,1.099 1.4,1.2 v 0.3 c 0,0.7 0.2,1.399 0.2,1.5 0,0.099 0.2,0.3 0.4,0.3 0.2,0 0.3,-0.1 0.3,-0.3 0,-0.2 -0.2,-0.901 -0.6,-1.601 0,-0.099 -0.1,-0.099 -0.1,-0.3 0,-0.2 0.1,-1.099 0.8,-1.099 0.5,0 1.1,0.5 1.3,1.2 0.1,0.199 0.3,1.1 0.3,1.6 0,0.9 -0.5,0.799 -0.5,1.099 0.1,0 1.1,-0.599 1.1,-1.899 0,-1.601 -1.4,-2.401 -2.2,-2.401 -0.8,0 -0.9,0.901 -1,1.201 -0.7,-1 -1.2,-1.201 -1.5,-1.201 -0.8,0 -1.3,0.601 -1.3,1.401 0,1.7 1.6,3.2 2.3,3.2"
             style="fill:#110f0d;fill-opacity:1;fill-rule:nonzero;stroke:none"
             id="path372"
             inkscape:connector-curvature="0" /></g><g
           id="g374"
           transform="translate(296.0752,356.75)"><path
             d="M 0,0 C 0.1,-0.6 0.4,-0.7 0.7,-0.7 1,-0.7 1.3,-0.5 1.4,0 1.5,0.4 1.5,0.8 1.5,1.2 1.5,1.6 1.5,2 1.4,2.3 1.3,2.9 0.9,3 0.7,3 0.6,3 0.1,2.9 0,2.3 V 1.2 Z m -0.3,2.5 c 0.2,0.5 0.7,0.7 1,0.7 0.2,0 0.7,-0.1 1,-0.7 C 1.9,2.1 1.9,1.6 1.9,1.1 1.9,0.6 1.9,0.2 1.7,-0.2 1.4,-0.8 1,-0.9 0.7,-0.9 c -0.3,0 -0.7,0.1 -1,0.6 -0.2,0.4 -0.3,1 -0.3,1.4 0.1,0.5 0.1,1 0.3,1.4"
             style="fill:#110f0d;fill-opacity:1;fill-rule:nonzero;stroke:none"
             id="path376"
             inkscape:connector-curvature="0" /></g><g
           id="g378"
           transform="translate(302.5898,352.0166)"><path
             d="m 0,0 h 0.2 c -1.4,-0.5 -1.8,-2.6 -1.8,-3.2 0,-0.8 0.4,-1 0.7,-1 0.7,0 1.3,1.1 1.4,1.2 v 0.3 c 0,0.7 0.2,1.4 0.2,1.5 0,0.1 0.2,0.3 0.4,0.3 0.2,0 0.3,-0.1 0.3,-0.3 0,-0.2 -0.2,-0.9 -0.6,-1.6 0,-0.1 -0.1,-0.1 -0.1,-0.3 0,-0.2 0.1,-1.1 0.8,-1.1 0.5,0 1.1,0.5 1.3,1.2 0.1,0.2 0.3,1.1 0.3,1.6 0,0.9 -0.5,0.8 -0.5,1.1 0.1,0 1.1,-0.6 1.1,-1.9 0,-1.6 -1.4,-2.4 -2.2,-2.4 -0.8,0 -0.9,0.9 -1,1.2 -0.7,-1 -1.2,-1.2 -1.5,-1.2 -0.8,0 -1.3,0.6 -1.3,1.4 C -2.4,-1.5 -0.8,0 0,0"
             style="fill:#110f0d;fill-opacity:1;fill-rule:nonzero;stroke:none"
             id="path380"
             inkscape:connector-curvature="0" /></g><g
           id="g382"
           transform="translate(306.6899,347.917)"><path
             d="m 0,0 c 0.2,0 0.7,0 1.1,0.399 0.1,0 0.1,0 0.1,-0.2 v -3.3 c 0,-0.2 0,-0.299 0.5,-0.299 H 1.9 V -3.601 H 1 0.1 V -3.4 h 0.2 c 0.499,0 0.499,0.099 0.499,0.299 v 3 C 0.5,-0.301 0.2,-0.301 0,-0.301 Z"
             style="fill:#110f0d;fill-opacity:1;fill-rule:nonzero;stroke:none"
             id="path384"
             inkscape:connector-curvature="0" /></g><path
           d="m 449.425,348.555 h 24.9 v -24.9 h -24.9 z"
           style="fill:none;stroke:#110f0d;stroke-width:1;stroke-linecap:butt;stroke-linejoin:miter;stroke-miterlimit:10;stroke-dasharray:none;stroke-opacity:1"
           id="path386"
           inkscape:connector-curvature="0" /><g
           id="g388"
           transform="translate(451.125,325.6543)"><path
             d="M 0,0 21.4,21.101"
             style="fill:none;stroke:#110f0d;stroke-width:0.5;stroke-linecap:butt;stroke-linejoin:miter;stroke-miterlimit:10;stroke-dasharray:none;stroke-opacity:1"
             id="path390"
             inkscape:connector-curvature="0" /></g><g
           id="g392"
           transform="translate(454.667,345.4502)"><path
             d="m 0,0 h 0.199 c -1.399,-0.5 -1.8,-2.601 -1.8,-3.2 0,-0.8 0.401,-1 0.701,-1 0.7,0 1.299,1.099 1.4,1.2 v 0.3 c 0,0.7 0.199,1.4 0.199,1.5 0,0.099 0.2,0.3 0.401,0.3 0.2,0 0.299,-0.1 0.299,-0.3 0,-0.2 -0.2,-0.901 -0.599,-1.6 C 0.8,-2.9 0.699,-2.9 0.699,-3.101 0.699,-3.3 0.8,-4.2 1.5,-4.2 c 0.5,0 1.1,0.5 1.3,1.2 0.099,0.2 0.3,1.1 0.3,1.6 0,0.9 -0.5,0.799 -0.5,1.1 0.099,0 1.099,-0.6 1.099,-1.9 0,-1.6 -1.399,-2.401 -2.199,-2.401 -0.801,0 -0.9,0.901 -1,1.201 -0.7,-1 -1.2,-1.201 -1.5,-1.201 -0.801,0 -1.301,0.601 -1.301,1.401 C -2.301,-1.5 -0.7,0 0,0"
             style="fill:#110f0d;fill-opacity:1;fill-rule:nonzero;stroke:none"
             id="path394"
             inkscape:connector-curvature="0" /></g><g
           id="g396"
           transform="translate(459.0664,338.5498)"><path
             d="M 0,0 C 0.101,-0.6 0.4,-0.7 0.7,-0.7 1,-0.7 1.3,-0.5 1.4,0 1.5,0.4 1.5,0.8 1.5,1.2 1.5,1.601 1.5,2 1.4,2.3 1.3,2.9 0.9,3 0.7,3 0.601,3 0.101,2.9 0,2.3 V 1.2 Z m -0.3,2.5 c 0.2,0.5 0.7,0.7 1,0.7 0.2,0 0.7,-0.099 1,-0.7 C 1.9,2.101 1.9,1.601 1.9,1.101 1.9,0.601 1.9,0.2 1.7,-0.2 1.4,-0.8 1,-0.899 0.7,-0.899 c -0.3,0 -0.7,0.099 -1,0.599 -0.2,0.401 -0.3,1 -0.3,1.401 0.1,0.5 0.1,1 0.3,1.399"
             style="fill:#110f0d;fill-opacity:1;fill-rule:nonzero;stroke:none"
             id="path398"
             inkscape:connector-curvature="0" /></g><g
           id="g400"
           transform="translate(465.1797,334.5)"><path
             d="m 0,0 h 0.2 c -1.4,-0.5 -1.801,-2.6 -1.801,-3.199 0,-0.801 0.401,-1 0.701,-1 0.7,0 1.299,1.099 1.4,1.199 v 0.301 c 0,0.699 0.2,1.399 0.2,1.5 0,0.099 0.199,0.3 0.4,0.3 0.2,0 0.299,-0.101 0.299,-0.3 0,-0.2 -0.199,-0.901 -0.599,-1.601 0,-0.099 -0.1,-0.099 -0.1,-0.3 0,-0.2 0.1,-1.099 0.8,-1.099 0.5,0 1.1,0.5 1.3,1.199 0.099,0.2 0.3,1.101 0.3,1.601 C 3.1,-0.5 2.6,-0.6 2.6,-0.3 2.7,-0.3 3.7,-0.899 3.7,-2.199 3.7,-3.8 2.3,-4.6 1.5,-4.6 c -0.8,0 -0.9,0.901 -1,1.201 -0.7,-1 -1.2,-1.201 -1.5,-1.201 -0.8,0 -1.3,0.6 -1.3,1.401 C -2.4,-1.5 -0.8,0 0,0"
             style="fill:#110f0d;fill-opacity:1;fill-rule:nonzero;stroke:none"
             id="path402"
             inkscape:connector-curvature="0" /></g><g
           id="g404"
           transform="translate(469.2793,330.4004)"><path
             d="M 0,0 C 0.2,0 0.7,0 1.101,0.4 1.2,0.4 1.2,0.4 1.2,0.2 v -3.3 c 0,-0.2 0,-0.3 0.5,-0.3 H 1.9 V -3.6 H 1 0.101 v 0.2 H 0.3 c 0.5,0 0.5,0.1 0.5,0.3 v 3 C 0.5,-0.3 0.2,-0.3 0,-0.3 Z"
             style="fill:#110f0d;fill-opacity:1;fill-rule:nonzero;stroke:none"
             id="path406"
             inkscape:connector-curvature="0" /></g></g></g><text
       xml:space="preserve"
       style="font-style:normal;font-variant:normal;font-weight:normal;font-stretch:normal;font-size:14px;line-height:1000%;font-family:TeXGyreAdventor;-inkscape-font-specification:TeXGyreAdventor;letter-spacing:0px;word-spacing:0px;fill:#2c3792;fill-opacity:1;stroke:none;stroke-width:0.75px;stroke-linecap:butt;stroke-linejoin:miter;stroke-opacity:1;"
       x="89.580841"
       y="-419.42819"
       id="text1215"
       transform="scale(1,-1)"><tspan
         sodipodi:role="line"
         id="tspan1213"
         x="89.580841"
         y="-419.42819"
         style="stroke-width:0.75px;fill:#2c3792;fill-opacity:1;">1</tspan></text>
<text
       xml:space="preserve"
       style="font-style:normal;font-variant:normal;font-weight:normal;font-stretch:normal;font-size:14px;line-height:1000%;font-family:TeXGyreAdventor;-inkscape-font-specification:TeXGyreAdventor;letter-spacing:0px;word-spacing:0px;fill:#2c3792;fill-opacity:1;stroke:none;stroke-width:0.75px;stroke-linecap:butt;stroke-linejoin:miter;stroke-opacity:1;"
       x="189.8367"
       y="-292.63882"
       id="text1215-7"
       transform="scale(1,-1)"><tspan
         sodipodi:role="line"
         id="tspan1213-5"
         x="189.8367"
         y="-292.63882"
         style="stroke-width:0.75px;fill:#2c3792;fill-opacity:1;">2</tspan></text>
<text
       xml:space="preserve"
       style="font-style:normal;font-variant:normal;font-weight:normal;font-stretch:normal;font-size:14px;line-height:1000%;font-family:TeXGyreAdventor;-inkscape-font-specification:TeXGyreAdventor;letter-spacing:0px;word-spacing:0px;fill:#2c3792;fill-opacity:1;stroke:none;stroke-width:0.75px;stroke-linecap:butt;stroke-linejoin:miter;stroke-opacity:1;"
       x="438.19336"
       y="-215.26981"
       id="text1215-6"
       transform="scale(1,-1)"><tspan
         sodipodi:role="line"
         id="tspan1213-2"
         x="438.19336"
         y="-215.26981"
         style="stroke-width:0.75px;fill:#2c3792;fill-opacity:1;">3</tspan></text>
<text
       xml:space="preserve"
       style="font-style:normal;font-variant:normal;font-weight:normal;font-stretch:normal;font-size:14px;line-height:1000%;font-family:TeXGyreAdventor;-inkscape-font-specification:TeXGyreAdventor;letter-spacing:0px;word-spacing:0px;fill:#2c3792;fill-opacity:1;stroke:none;stroke-width:0.75px;stroke-linecap:butt;stroke-linejoin:miter;stroke-opacity:1;"
       x="425.46243"
       y="-308.18716"
       id="text1215-8"
       transform="scale(1,-1)"><tspan
         sodipodi:role="line"
         id="tspan1213-6"
         x="425.46243"
         y="-308.18716"
         style="stroke-width:0.75px;fill:#2c3792;fill-opacity:1;">4</tspan></text>
<text
       xml:space="preserve"
       style="font-style:normal;font-variant:normal;font-weight:normal;font-stretch:normal;font-size:14px;line-height:1000%;font-family:TeXGyreAdventor;-inkscape-font-specification:TeXGyreAdventor;letter-spacing:0px;word-spacing:0px;fill:#2c3792;fill-opacity:1;stroke:none;stroke-width:0.75px;stroke-linecap:butt;stroke-linejoin:miter;stroke-opacity:1;"
       x="322.80142"
       y="-326.22531"
       id="text1215-2"
       transform="scale(1,-1)"><tspan
         sodipodi:role="line"
         id="tspan1213-8"
         x="322.80142"
         y="-326.22531"
         style="stroke-width:0.75px;fill:#2c3792;fill-opacity:1;">5</tspan></text>
<text
       xml:space="preserve"
       style="font-style:normal;font-variant:normal;font-weight:normal;font-stretch:normal;font-size:14px;line-height:1000%;font-family:TeXGyreAdventor;-inkscape-font-specification:TeXGyreAdventor;letter-spacing:0px;word-spacing:0px;fill:#000000;fill-opacity:1;stroke:none;stroke-width:0.75px;stroke-linecap:butt;stroke-linejoin:miter;stroke-opacity:1"
       x="424.62344"
       y="-356.42871"
       id="text1215-4"
       transform="scale(1,-1)"><tspan
         sodipodi:role="line"
         id="tspan1213-7"
         x="424.62344"
         y="-356.42871"
         style="stroke-width:0.75px">4</tspan></text>
<text
       xml:space="preserve"
       style="font-style:normal;font-variant:normal;font-weight:normal;font-stretch:normal;font-size:14px;line-height:1000%;font-family:TeXGyreAdventor;-inkscape-font-specification:TeXGyreAdventor;letter-spacing:0px;word-spacing:0px;fill:#000000;fill-opacity:1;stroke:none;stroke-width:0.75px;stroke-linecap:butt;stroke-linejoin:miter;stroke-opacity:1"
       x="320.70395"
       y="-370.69141"
       id="text1215-24"
       transform="scale(1,-1)"><tspan
         sodipodi:role="line"
         id="tspan1213-0"
         x="320.70395"
         y="-370.69141"
         style="stroke-width:0.75px">5</tspan></text>
<text
       xml:space="preserve"
       style="font-style:normal;font-variant:normal;font-weight:normal;font-stretch:normal;font-size:14px;line-height:1000%;font-family:TeXGyreAdventor;-inkscape-font-specification:TeXGyreAdventor;letter-spacing:0px;word-spacing:0px;fill:#000000;fill-opacity:1;stroke:none;stroke-width:0.75px;stroke-linecap:butt;stroke-linejoin:miter;stroke-opacity:1"
       x="333.2887"
       y="-419.35245"
       id="text1215-62"
       transform="scale(1,-1)"><tspan
         sodipodi:role="line"
         id="tspan1213-9"
         x="333.2887"
         y="-419.35245"
         style="stroke-width:0.75px">6</tspan></text>
<text
       xml:space="preserve"
       style="font-style:normal;font-variant:normal;font-weight:normal;font-stretch:normal;font-size:14px;line-height:1000%;font-family:TeXGyreAdventor;-inkscape-font-specification:TeXGyreAdventor;letter-spacing:0px;word-spacing:0px;fill:#000000;fill-opacity:1;stroke:none;stroke-width:0.75px;stroke-linecap:butt;stroke-linejoin:miter;stroke-opacity:1"
       x="460.81412"
       y="-394.18295"
       id="text1215-9"
       transform="scale(1,-1)"><tspan
         sodipodi:role="line"
         id="tspan1213-08"
         x="460.81412"
         y="-394.18295"
         style="stroke-width:0.75px">7</tspan></text>
<text
       xml:space="preserve"
       style="font-style:normal;font-variant:normal;font-weight:normal;font-stretch:normal;font-size:14px;line-height:1000%;font-family:TeXGyreAdventor;-inkscape-font-specification:TeXGyreAdventor;letter-spacing:0px;word-spacing:0px;fill:#000000;fill-opacity:1;stroke:none;stroke-width:0.75px;stroke-linecap:butt;stroke-linejoin:miter;stroke-opacity:1"
       x="516.36499"
       y="-375.96683"
       id="text1215-1"
       transform="scale(1,-1)"><tspan
         sodipodi:role="line"
         id="tspan1213-3"
         x="516.36499"
         y="-375.96683"
         style="stroke-width:0.75px">8</tspan></text>
<text
       xml:space="preserve"
       style="font-style:normal;font-variant:normal;font-weight:normal;font-stretch:normal;font-size:14px;line-height:1000%;font-family:TeXGyreAdventor;-inkscape-font-specification:TeXGyreAdventor;letter-spacing:0px;word-spacing:0px;fill:#000000;fill-opacity:1;stroke:none;stroke-width:0.75px;stroke-linecap:butt;stroke-linejoin:miter;stroke-opacity:1"
       x="427.25482"
       y="-434.03464"
       id="text1215-11"
       transform="scale(1,-1)"><tspan
         sodipodi:role="line"
         id="tspan1213-03"
         x="427.25482"
         y="-434.03464"
         style="stroke-width:0.75px">9</tspan></text>
<text
       xml:space="preserve"
       style="font-style:normal;font-variant:normal;font-weight:normal;font-stretch:normal;font-size:14px;line-height:1000%;font-family:TeXGyreAdventor;-inkscape-font-specification:TeXGyreAdventor;letter-spacing:0px;word-spacing:0px;fill:#000000;fill-opacity:1;stroke:none;stroke-width:0.75px;stroke-linecap:butt;stroke-linejoin:miter;stroke-opacity:1"
       x="417.60651"
       y="-463.39905"
       id="text1215-40"
       transform="scale(1,-1)"><tspan
         sodipodi:role="line"
         id="tspan1213-39"
         x="417.60651"
         y="-463.39905"
         style="stroke-width:0.75px">10</tspan></text>
<text
       xml:space="preserve"
       style="font-style:normal;font-variant:normal;font-weight:normal;font-stretch:normal;font-size:14px;line-height:1000%;font-family:TeXGyreAdventor;-inkscape-font-specification:TeXGyreAdventor;letter-spacing:0px;word-spacing:0px;fill:#000000;fill-opacity:1;stroke:none;stroke-width:0.75px;stroke-linecap:butt;stroke-linejoin:miter;stroke-opacity:1"
       x="415.50903"
       y="-509.12363"
       id="text1215-19"
       transform="scale(1,-1)"><tspan
         sodipodi:role="line"
         id="tspan1213-69"
         x="415.50903"
         y="-509.12363"
         style="stroke-width:0.75px">14</tspan></text>
<text
       xml:space="preserve"
       style="font-style:normal;font-variant:normal;font-weight:normal;font-stretch:normal;font-size:14px;line-height:1000%;font-family:TeXGyreAdventor;-inkscape-font-specification:TeXGyreAdventor;letter-spacing:0px;word-spacing:0px;fill:#000000;fill-opacity:1;stroke:none;stroke-width:0.75px;stroke-linecap:butt;stroke-linejoin:miter;stroke-opacity:1"
       x="335.80566"
       y="-473.04736"
       id="text1215-3"
       transform="scale(1,-1)"><tspan
         sodipodi:role="line"
         id="tspan1213-38"
         x="335.80566"
         y="-473.04736"
         style="stroke-width:0.75px">11</tspan></text>
<text
       xml:space="preserve"
       style="font-style:normal;font-variant:normal;font-weight:normal;font-stretch:normal;font-size:14px;line-height:1000%;font-family:TeXGyreAdventor;-inkscape-font-specification:TeXGyreAdventor;letter-spacing:0px;word-spacing:0px;fill:#000000;fill-opacity:1;stroke:none;stroke-width:0.75px;stroke-linecap:butt;stroke-linejoin:miter;stroke-opacity:1"
       x="322.38193"
       y="-535.97107"
       id="text1215-0"
       transform="scale(1,-1)"><tspan
         sodipodi:role="line"
         id="tspan1213-56"
         x="322.38193"
         y="-535.97107"
         style="stroke-width:0.75px">13</tspan></text>
<text
       xml:space="preserve"
       style="font-style:normal;font-variant:normal;font-weight:normal;font-stretch:normal;font-size:14px;line-height:1000%;font-family:TeXGyreAdventor;-inkscape-font-specification:TeXGyreAdventor;letter-spacing:0px;word-spacing:0px;fill:#000000;fill-opacity:1;stroke:none;stroke-width:0.75px;stroke-linecap:butt;stroke-linejoin:miter;stroke-opacity:1"
       x="194.85649"
       y="-500.7338"
       id="text1215-400"
       transform="scale(1,-1)"><tspan
         sodipodi:role="line"
         id="tspan1213-4"
         x="194.85649"
         y="-500.7338"
         style="stroke-width:0.75px">12</tspan></text>
<text
       xml:space="preserve"
       style="font-style:normal;font-variant:normal;font-weight:normal;font-stretch:normal;font-size:14px;line-height:1000%;font-family:TeXGyreAdventor;-inkscape-font-specification:TeXGyreAdventor;letter-spacing:0px;word-spacing:0px;fill:#2c3792;fill-opacity:1;stroke:none;stroke-width:0.75px;stroke-linecap:butt;stroke-linejoin:miter;stroke-opacity:1;"
       x="61.25"
       y="-443.327"
       id="text1215-626"
       transform="scale(1,-1)"><tspan
         sodipodi:role="line"
         id="tspan1213-75"
         x="61.25"
         y="-443.327"
         style="stroke-width:0.75px;fill:#2c3792;fill-opacity:1;">G</tspan></text>
<text
       xml:space="preserve"
       style="font-style:normal;font-variant:normal;font-weight:normal;font-stretch:normal;font-size:14px;line-height:1000%;font-family:TeXGyreAdventor;-inkscape-font-specification:TeXGyreAdventor;letter-spacing:0px;word-spacing:0px;fill:#2c3792;fill-opacity:1;stroke:none;stroke-width:0.75px;stroke-linecap:butt;stroke-linejoin:miter;stroke-opacity:1;"
       x="148.2085"
       y="-266.577"
       id="text1215-626-6"
       transform="scale(1,-1)"><tspan
         sodipodi:role="line"
         id="tspan1213-75-9"
         x="148.2085"
         y="-266.577"
         style="stroke-width:0.75px;fill:#2c3792;fill-opacity:1;">G</tspan></text>
<text
       xml:space="preserve"
       style="font-style:normal;font-variant:normal;font-weight:normal;font-stretch:normal;font-size:14px;line-height:1000%;font-family:TeXGyreAdventor;-inkscape-font-specification:TeXGyreAdventor;letter-spacing:0px;word-spacing:0px;fill:#000000;fill-opacity:1;stroke:none;stroke-width:0.75px;stroke-linecap:butt;stroke-linejoin:miter;stroke-opacity:1"
       x="223.96851"
       y="-406.53549"
       id="text1215-626-8"
       transform="scale(1,-1)"><tspan
         sodipodi:role="line"
         id="tspan1213-75-7"
         x="223.96851"
         y="-406.53549"
         style="stroke-width:0.75px">C</tspan></text>
<text
       xml:space="preserve"
       style="font-style:normal;font-variant:normal;font-weight:normal;font-stretch:normal;font-size:14px;line-height:1000%;font-family:TeXGyreAdventor;-inkscape-font-specification:TeXGyreAdventor;letter-spacing:0px;word-spacing:0px;fill:#000000;fill-opacity:1;stroke:none;stroke-width:0.75px;stroke-linecap:butt;stroke-linejoin:miter;stroke-opacity:1"
       x="536.54028"
       y="-394.181"
       id="text1215-626-2"
       transform="scale(1,-1)"><tspan
         sodipodi:role="line"
         id="tspan1213-75-8"
         x="536.54028"
         y="-394.181"
         style="stroke-width:0.75px">C</tspan></text>
<text
       xml:space="preserve"
       style="font-style:normal;font-variant:normal;font-weight:normal;font-stretch:normal;font-size:14px;line-height:1000%;font-family:TeXGyreAdventor;-inkscape-font-specification:TeXGyreAdventor;letter-spacing:0px;word-spacing:0px;fill:#2c3792;fill-opacity:1;stroke:none;stroke-width:0.75px;stroke-linecap:butt;stroke-linejoin:miter;stroke-opacity:1;"
       x="450.63501"
       y="-188.536"
       id="text1215-626-29"
       transform="scale(1,-1)"><tspan
         sodipodi:role="line"
         id="tspan1213-75-96"
         x="450.63501"
         y="-188.536"
         style="stroke-width:0.75px;fill:#2c3792;fill-opacity:1;">C</tspan></text>
</g></svg>